<svg id="__SVG_SPRITE_NODE__" xmlns="http://www.w3.org/2000/svg" xmlns:xlink="http://www.w3.org/1999/xlink" width="0" height="0">
    <defs>
    <symbol id="icon-delete-active" viewBox="0 0 24 24">
        <path d="M7 6V3C7 2.73478 7.10536 2.48043 7.29289 2.29289C7.48043 2.10536 7.73478 2 8 2H16C16.2652 2 16.5196 2.10536 16.7071 2.29289C16.8946 2.48043 17 2.73478 17 3V6H22V8H20V21C20 21.2652 19.8946 21.5196 19.7071 21.7071C19.5196 21.8946 19.2652 22 19 22H5C4.73478 22 4.48043 21.8946 4.29289 21.7071C4.10536 21.5196 4 21.2652 4 21V8H2V6H7ZM13.414 14L15.182 12.232L13.768 10.818L12 12.586L10.232 10.818L8.818 12.232L10.586 14L8.818 15.768L10.232 17.182L12 15.414L13.768 17.182L15.182 15.768L13.414 14ZM9 4V6H15V4H9Z" fill="#6B7A99"/>
    </symbol>
    <symbol id="icon-delete" viewBox="0 0 24 24">
        <g opacity="0.5" clip-path="url(#clip0_3907_28871)">
            <path d="M17 6H22V8H20V21C20 21.2652 19.8946 21.5196 19.7071 21.7071C19.5196 21.8946 19.2652 22 19 22H5C4.73478 22 4.48043 21.8946 4.29289 21.7071C4.10536 21.5196 4 21.2652 4 21V8H2V6H7V3C7 2.73478 7.10536 2.48043 7.29289 2.29289C7.48043 2.10536 7.73478 2 8 2H16C16.2652 2 16.5196 2.10536 16.7071 2.29289C16.8946 2.48043 17 2.73478 17 3V6ZM18 8H6V20H18V8ZM13.414 14L15.182 15.768L13.768 17.182L12 15.414L10.232 17.182L8.818 15.768L10.586 14L8.818 12.232L10.232 10.818L12 12.586L13.768 10.818L15.182 12.232L13.414 14ZM9 4V6H15V4H9Z" fill="#6B7A99"/>
        </g>
        <defs>
            <clipPath id="clip0_3907_28871">
                <rect width="24" height="24" fill="white"/>
            </clipPath>
        </defs>
    </symbol>
    <symbol id="icon-copy-active" viewBox="0 0 24 24">
        <g clip-path="url(#clip0_3907_28836)">
            <path d="M7 7V3C7 2.73478 7.10536 2.48043 7.29289 2.29289C7.48043 2.10536 7.73478 2 8 2H21C21.2652 2 21.5196 2.10536 21.7071 2.29289C21.8946 2.48043 22 2.73478 22 3V16C22 16.2652 21.8946 16.5196 21.7071 16.7071C21.5196 16.8946 21.2652 17 21 17H17V20.993C17 21.549 16.551 22 15.993 22H3.007C2.87472 22.0001 2.74372 21.9742 2.62148 21.9236C2.49925 21.8731 2.38819 21.7989 2.29465 21.7053C2.20112 21.6118 2.12695 21.5008 2.07639 21.3785C2.02583 21.2563 1.99987 21.1253 2 20.993L2.003 8.007C2.003 7.451 2.452 7 3.01 7H7ZM9 7H15.993C16.549 7 17 7.449 17 8.007V15H20V4H9V7Z" fill="#6B7A99"/>
        </g>
        <defs>
            <clipPath id="clip0_3907_28836">
                <rect width="24" height="24" fill="white"/>
            </clipPath>
        </defs>
    </symbol>
    <symbol id="icon-copy-active" viewBox="0 0 24 24">
        <g clip-path="url(#clip0_3907_28836)">
            <path d="M7 7V3C7 2.73478 7.10536 2.48043 7.29289 2.29289C7.48043 2.10536 7.73478 2 8 2H21C21.2652 2 21.5196 2.10536 21.7071 2.29289C21.8946 2.48043 22 2.73478 22 3V16C22 16.2652 21.8946 16.5196 21.7071 16.7071C21.5196 16.8946 21.2652 17 21 17H17V20.993C17 21.549 16.551 22 15.993 22H3.007C2.87472 22.0001 2.74372 21.9742 2.62148 21.9236C2.49925 21.8731 2.38819 21.7989 2.29465 21.7053C2.20112 21.6118 2.12695 21.5008 2.07639 21.3785C2.02583 21.2563 1.99987 21.1253 2 20.993L2.003 8.007C2.003 7.451 2.452 7 3.01 7H7ZM9 7H15.993C16.549 7 17 7.449 17 8.007V15H20V4H9V7Z" fill="#6B7A99"/>
        </g>
        <defs>
            <clipPath id="clip0_3907_28836">
                <rect width="24" height="24" fill="white"/>
            </clipPath>
        </defs>
    </symbol>
    <symbol id="icon-copy" viewBox="0 0 24 24">
        <g opacity="0.5" clip-path="url(#clip0_3907_28837)">
            <path d="M7 7V3C7 2.73478 7.10536 2.48043 7.29289 2.29289C7.48043 2.10536 7.73478 2 8 2H21C21.2652 2 21.5196 2.10536 21.7071 2.29289C21.8946 2.48043 22 2.73478 22 3V16C22 16.2652 21.8946 16.5196 21.7071 16.7071C21.5196 16.8946 21.2652 17 21 17H17V20.993C17 21.549 16.551 22 15.993 22H3.007C2.87472 22.0001 2.74372 21.9742 2.62148 21.9236C2.49925 21.8731 2.38819 21.7989 2.29465 21.7053C2.20112 21.6118 2.12695 21.5008 2.07639 21.3785C2.02583 21.2563 1.99987 21.1253 2 20.993L2.003 8.007C2.003 7.451 2.452 7 3.01 7H7ZM9 7H15.993C16.549 7 17 7.449 17 8.007V15H20V4H9V7ZM4.003 9L4 20H15V9H4.003Z" fill="#6B7A99"/>
        </g>
        <defs>
            <clipPath id="clip0_3907_28837">
                <rect width="24" height="24" fill="white"/>
            </clipPath>
        </defs>
    </symbol>
    <symbol id="icon-check-fill" viewBox="0 0 16 16">
        <g clip-path="url(#clip0_1769_30971)">
            <path d="M6.66845 10.1145L12.7964 3.98584L13.7398 4.92851L6.66845 11.9998L2.42578 7.75717L3.36845 6.81451L6.66845 10.1145Z" fill="#126335"/>
        </g>
        <defs>
            <clipPath id="clip0_1769_30971">
                <rect width="16" height="16" fill="white"/>
            </clipPath>
        </defs>
    </symbol>
    <symbol id="icon-qiwi" viewBox="0 0 20 20">
        <path fill-rule="evenodd" clip-rule="evenodd" d="M13.2015 17.8436C14.6699 17.8436 16.2631 18.355 18.027 19.9421C18.2037 20.1009 18.4389 19.9035 18.2844 19.706C16.5515 17.4834 14.9486 17.0603 13.35 16.7028C11.3942 16.2648 10.3887 15.1471 9.68782 13.9203C9.54851 13.6764 9.48563 13.7195 9.47317 14.0333C9.45745 14.4167 9.48401 14.9248 9.56857 15.4246C9.48943 15.4279 9.41029 15.4274 9.33006 15.4274C6.533 15.4274 4.265 13.1237 4.265 10.2821C4.265 7.44113 6.533 5.13799 9.3306 5.13799C12.1277 5.13799 14.3957 7.44113 14.3957 10.2821C14.3957 10.4846 14.3859 10.6848 14.3631 10.8807C13.9934 10.8128 13.2655 10.8051 12.7548 10.8498C12.5629 10.8669 12.59 10.9579 12.7353 10.9844C14.4098 11.2916 15.5595 12.3458 15.8229 14.2584C15.8283 14.3026 15.8858 14.3152 15.908 14.2772C16.62 13.0707 16.995 11.6894 16.9927 10.2821C16.9927 5.98477 13.562 2.5 9.3306 2.5C5.0987 2.5 1.66797 5.98422 1.66797 10.2821C1.66797 14.5806 5.0987 18.0654 9.3306 18.0654C10.4527 18.0654 11.5672 17.8436 13.2015 17.8436ZM13.7717 15.018C14.1127 15.3104 14.2162 15.6585 14.0363 15.904C13.936 16.0386 13.7734 16.1131 13.5782 16.1131C13.3879 16.1131 13.2035 16.0452 13.0573 15.9211C12.7472 15.6458 12.6562 15.2001 12.8584 14.9469C12.9375 14.8476 13.066 14.793 13.2199 14.793C13.4069 14.793 13.6032 14.873 13.7717 15.018ZM15.3448 14.2744C15.3947 14.6153 15.289 14.7566 15.1822 14.7566C15.0657 14.7566 14.9198 14.6186 14.748 14.3456C14.5778 14.0764 14.5155 13.7675 14.6 13.6113C14.6553 13.5082 14.7719 13.4629 14.9188 13.5198C15.2033 13.6284 15.3145 14.0709 15.3448 14.2744Z" fill="#6B7A99"/>
    </symbol>
    <symbol id="icon-swipe" viewBox="0 0 31 30">
        <path d="M24.6462 5.76136C23.0262 3.82955 19.55 2.5 15.5 2.5C11.45 2.5 7.97375 3.82955 6.35375 5.76136L4.25 3.63636V9.31818H9.875L7.54625 6.96591C8.67125 5.5 11.7088 4.20455 15.5 4.20455C19.2912 4.20455 22.3287 5.5 23.4537 6.96591L21.125 9.31818H26.75V3.63636L24.6462 5.76136Z" fill="#C3CAD9"/>
        <path d="M16.625 15.5682V8.75C16.625 7.80682 15.8713 7.04545 14.9375 7.04545C14.0037 7.04545 13.25 7.80682 13.25 8.75V20.9545L9.04217 20.0603C8.83229 20.0157 8.6142 20.0819 8.4645 20.2356L7.77193 20.9467C7.5342 21.1908 7.53579 21.5803 7.77551 21.8225L13.2128 27.3147C13.3302 27.4333 13.4901 27.5 13.657 27.5H22.9446C23.256 27.5 23.5199 27.2708 23.5634 26.9624L24.6494 19.2739C24.6877 19.0029 24.5451 18.7385 24.2977 18.6215L17.84 15.5682H16.625Z" fill="#C3CAD9"/>
    </symbol>
    <symbol id="icon-arrowup" viewBox="0 0 12 12">
        <path d="M2.17783 7.26693L5.57059 3.87417C5.68449 3.76031 5.83895 3.69634 6 3.69634C6.16105 3.69634 6.31551 3.76031 6.42941 3.87417L9.82217 7.26693C9.90709 7.35187 9.96491 7.46009 9.98834 7.57789C10.0118 7.69569 9.99973 7.81779 9.95377 7.92875C9.90781 8.03972 9.82999 8.13457 9.73013 8.20131C9.63027 8.26805 9.51287 8.30369 9.39276 8.30371H2.60724C2.48713 8.30369 2.36973 8.26805 2.26987 8.20131C2.17001 8.13457 2.09219 8.03972 2.04623 7.92875C2.00027 7.81779 1.98824 7.69569 2.01166 7.57789C2.03509 7.46009 2.09291 7.35187 2.17783 7.26693Z" />
    </symbol>
    <symbol id="icon-plus" viewBox="0 0 20 20">
        <g clip-path="url(#clip0_3803_17154icon-plus)">
            <path d="M9.16797 9.1665V4.1665H10.8346V9.1665H15.8346V10.8332H10.8346V15.8332H9.16797V10.8332H4.16797V9.1665H9.16797Z" />
        </g>
        <defs>
            <clipPath id="clip0_3803_17154icon-plus">
                <rect width="20" height="20" fill="white"/>
            </clipPath>
        </defs>
    </symbol>
    <symbol id="icon-checkbox-0" viewBox="0 0 20 20">
        <g clip-path="url(#clip0_3803_17150icon-checkbox-0)">
            <path fill-rule="evenodd" clip-rule="evenodd" d="M9.9987 0.833496C4.93609 0.833496 0.832031 4.93755 0.832031 10.0002C0.832031 15.0628 4.93609 19.1668 9.9987 19.1668C15.0613 19.1668 19.1654 15.0628 19.1654 10.0002C19.1654 4.93755 15.0613 0.833496 9.9987 0.833496ZM14.4243 7.88115C14.7497 7.55571 14.7497 7.02807 14.4243 6.70264C14.0988 6.3772 13.5712 6.3772 13.2458 6.70264L8.66244 11.53L6.75169 9.61931C6.42625 9.29387 5.89862 9.29387 5.57318 9.61931C5.24774 9.94474 5.24774 10.4724 5.57318 10.7978L8.07318 13.2978C8.39862 13.6233 8.92626 13.6233 9.25169 13.2978L14.4243 7.88115Z" fill="#6B7A99"/>
        </g>
        <defs>
            <clipPath id="clip0_3803_17150icon-checkbox-0">
                <rect width="20" height="20" fill="white"/>
            </clipPath>
        </defs>
    </symbol>
    <symbol id="icon-checkbox-1" viewBox="0 0 20 20">
        <g clip-path="url(#clip0_3803_17150icon-checkbox-1)">
            <path fill-rule="evenodd" clip-rule="evenodd" d="M9.9987 0.833496C4.93609 0.833496 0.832031 4.93755 0.832031 10.0002C0.832031 15.0628 4.93609 19.1668 9.9987 19.1668C15.0613 19.1668 19.1654 15.0628 19.1654 10.0002C19.1654 4.93755 15.0613 0.833496 9.9987 0.833496ZM14.4243 7.88115C14.7497 7.55571 14.7497 7.02807 14.4243 6.70264C14.0988 6.3772 13.5712 6.3772 13.2458 6.70264L8.66244 11.53L6.75169 9.61931C6.42625 9.29387 5.89862 9.29387 5.57318 9.61931C5.24774 9.94474 5.24774 10.4724 5.57318 10.7978L8.07318 13.2978C8.39862 13.6233 8.92626 13.6233 9.25169 13.2978L14.4243 7.88115Z" fill="#8833FF"/>
        </g>
        <defs>
            <clipPath id="clip0_3803_17150icon-checkbox-1">
                <rect width="20" height="20" fill="white"/>
            </clipPath>
        </defs>
    </symbol>
    <symbol id="icon-acc-calendar" viewBox="0 0 20 20">
        <path d="M14.168 2.50016H17.5013C17.7223 2.50016 17.9343 2.58796 18.0906 2.74424C18.2468 2.90052 18.3346 3.11248 18.3346 3.3335V16.6668C18.3346 16.8878 18.2468 17.0998 18.0906 17.2561C17.9343 17.4124 17.7223 17.5002 17.5013 17.5002H2.5013C2.28029 17.5002 2.06833 17.4124 1.91205 17.2561C1.75577 17.0998 1.66797 16.8878 1.66797 16.6668V3.3335C1.66797 3.11248 1.75577 2.90052 1.91205 2.74424C2.06833 2.58796 2.28029 2.50016 2.5013 2.50016H5.83464V0.833496H7.5013V2.50016H12.5013V0.833496H14.168V2.50016ZM3.33464 7.50016V15.8335H16.668V7.50016H3.33464ZM5.0013 10.8335H9.16797V14.1668H5.0013V10.8335Z" />
    </symbol>
    <symbol id="icon-acc-funds" viewBox="0 0 24 24">
        <g clip-path="url(#clip0_1743_12481icon-acc-funds)">
            <path d="M3.89701 17.86L7.80701 13.95L10.636 16.778L15.207 12.208L17 14V9H12L13.793 10.793L10.636 13.95L7.80801 11.121L2.86201 16.067C2.29194 14.787 1.99821 13.4012 2.00001 12C2.00001 6.477 6.47701 2 12 2C17.523 2 22 6.477 22 12C22 17.523 17.523 22 12 22C10.418 22.001 8.85839 21.6262 7.44962 20.9065C6.04084 20.1867 4.82321 19.1425 3.89701 17.86Z" fill="#C3CAD9"/>
        </g>
        <defs>
            <clipPath id="clip0_1743_12481icon-acc-funds">
                <rect width="24" height="24" fill="white"/>
            </clipPath>
        </defs>
    </symbol>
    <symbol id="icon-acc-wallet" viewBox="0 0 24 24">
        <g clip-path="url(#clip0_1767_13890icon-acc-wallet)">
            <path d="M2 9H21C21.2652 9 21.5196 9.10536 21.7071 9.29289C21.8946 9.48043 22 9.73478 22 10V20C22 20.2652 21.8946 20.5196 21.7071 20.7071C21.5196 20.8946 21.2652 21 21 21H3C2.73478 21 2.48043 20.8946 2.29289 20.7071C2.10536 20.5196 2 20.2652 2 20V9ZM3 3H18V7H2V4C2 3.73478 2.10536 3.48043 2.29289 3.29289C2.48043 3.10536 2.73478 3 3 3ZM15 14V16H18V14H15Z" fill="#C3CAD9"/>
        </g>
        <defs>
            <clipPath id="clip0_1767_13890icon-acc-wallet">
                <rect width="24" height="24" fill="white"/>
            </clipPath>
        </defs>
    </symbol>
    <symbol id="icon-acc-star" viewBox="0 0 24 24">
        <g clip-path="url(#clip0_1767_13818icon-acc-star)">
            <path d="M13 10H20L11 23V14H4L13 1V10Z" fill="#FFC700"/>
        </g>
        <defs>
            <clipPath id="clip0_1767_13818icon-acc-star">
                <rect width="24" height="24" fill="white"/>
            </clipPath>
        </defs>
    </symbol>
    <symbol id="icon-acc-flow" viewBox="0 0 25 24">
        <g clip-path="url(#clip0_1743_12477icon-acc-flow)">
            <path d="M19.8741 15.103C20.5229 13.5613 20.6723 11.855 20.3011 10.224C19.93 8.59303 19.057 7.11938 17.805 6.01024C16.5529 4.9011 14.9847 4.21225 13.3209 4.04055C11.6571 3.86884 9.98124 4.22292 8.52906 5.05299L7.53706 3.31599C9.0547 2.4486 10.7733 1.99435 12.5213 1.99856C14.2693 2.00278 15.9856 2.4653 17.4991 3.33999C21.9891 5.93199 23.7091 11.482 21.6161 16.11L22.9581 16.884L18.7931 19.098L18.6281 14.384L19.8741 15.103ZM5.12406 8.89699C4.47521 10.4387 4.32585 12.145 4.69698 13.776C5.06811 15.4069 5.94108 16.8806 7.19314 17.9897C8.4452 19.0989 10.0134 19.7877 11.6772 19.9594C13.3411 20.1311 15.0169 19.7771 16.4691 18.947L17.4611 20.684C15.9434 21.5514 14.2249 22.0056 12.4769 22.0014C10.7288 21.9972 9.0125 21.5347 7.49906 20.66C3.00906 18.068 1.28906 12.518 3.38206 7.88999L2.03906 7.11699L6.20406 4.90299L6.36906 9.61699L5.12306 8.89799L5.12406 8.89699ZM8.99906 14H14.4991C14.6317 14 14.7588 13.9473 14.8526 13.8535C14.9464 13.7598 14.9991 13.6326 14.9991 13.5C14.9991 13.3674 14.9464 13.2402 14.8526 13.1464C14.7588 13.0527 14.6317 13 14.4991 13H10.4991C9.83602 13 9.20014 12.7366 8.7313 12.2678C8.26245 11.7989 7.99906 11.163 7.99906 10.5C7.99906 9.83694 8.26245 9.20106 8.7313 8.73222C9.20014 8.26338 9.83602 7.99999 10.4991 7.99999H11.4991V6.99999H13.4991V7.99999H15.9991V9.99999H10.4991C10.3665 9.99999 10.2393 10.0527 10.1455 10.1464C10.0517 10.2402 9.99906 10.3674 9.99906 10.5C9.99906 10.6326 10.0517 10.7598 10.1455 10.8535C10.2393 10.9473 10.3665 11 10.4991 11H14.4991C15.1621 11 15.798 11.2634 16.2668 11.7322C16.7357 12.2011 16.9991 12.8369 16.9991 13.5C16.9991 14.163 16.7357 14.7989 16.2668 15.2678C15.798 15.7366 15.1621 16 14.4991 16H13.4991V17H11.4991V16H8.99906V14Z" fill="#C3CAD9"/>
        </g>
        <defs>
        <clipPath id="clip0_1743_12477icon-acc-flow">
            <rect width="24" height="24" fill="white" transform="translate(0.5)"/>
        </clipPath>
        </defs>
    </symbol>
    <symbol id="icon-acc-crown" viewBox="0 0 24 24">
        <path d="M2 19H22V21H2V19ZM2 5L7 8L12 2L17 8L22 5V17H2V5Z" fill="#C3CAD9"/>
    </symbol>
    <symbol id="icon-pay-btn" viewBox="0 0 20 20">
        <path d="M18.3346 5.83333H1.66797V3.33333C1.66797 3.11232 1.75577 2.90036 1.91205 2.74408C2.06833 2.5878 2.28029 2.5 2.5013 2.5H17.5013C17.7223 2.5 17.9343 2.5878 18.0906 2.74408C18.2468 2.90036 18.3346 3.11232 18.3346 3.33333V5.83333ZM18.3346 7.5V16.6667C18.3346 16.8877 18.2468 17.0996 18.0906 17.2559C17.9343 17.4122 17.7223 17.5 17.5013 17.5H2.5013C2.28029 17.5 2.06833 17.4122 1.91205 17.2559C1.75577 17.0996 1.66797 16.8877 1.66797 16.6667V7.5H18.3346ZM9.16797 11.6667V9.58333L5.41797 13.3333H14.168V11.6667H9.16797Z" />
    </symbol>
    <symbol id="icon-referral" viewBox="0 0 24 24" >
        <path fill-rule="evenodd" clip-rule="evenodd" d="M6.71954 3.57045C6.06494 2.89728 5.07213 2.81741 4.5048 3.41071L0.380809 7.67795C-0.186513 8.27125 -0.110143 9.30954 0.544459 9.98271C1.19906 10.6559 2.19187 10.7358 2.7592 10.1424L6.88319 5.8638C7.4396 5.28191 7.37414 4.25503 6.71954 3.57045Z" />
        <path fill-rule="evenodd" clip-rule="evenodd" d="M17.6187 14.809L16.8659 14.0902L14.5748 11.8767L12.9928 13.3144C12.5346 13.7593 11.9127 13.9989 11.2145 13.9647C10.418 13.9305 9.65434 13.5654 9.1743 12.9835C8.21422 11.8197 8.4106 10.131 9.19612 9.24108C9.2834 9.13839 9.37068 9.04711 9.45796 8.96725L10.5053 7.94037L10.178 7.6209C9.69798 7.14169 8.69426 6.6853 7.62507 7.79205L4.75573 10.7358C3.83929 11.6714 3.82838 13.2117 4.74482 14.1587L11.9782 21.7347C12.3164 22.0884 12.8728 22.0884 13.211 21.7347C13.5601 21.381 13.5601 20.8105 13.211 20.4454L11.1599 18.3004C11.0399 18.1749 11.0508 17.9923 11.1599 17.8668C11.2799 17.7527 11.4545 17.7527 11.5745 17.8668L14.8584 21.3012C15.1966 21.6549 15.7531 21.6549 16.0913 21.3012C16.4404 20.9475 16.4404 20.377 16.0913 20.0119L12.8073 16.5775C12.6873 16.452 12.6982 16.2695 12.8073 16.144C12.9274 16.0299 13.1019 16.0299 13.2219 16.144L16.9204 20.0119C17.2586 20.3656 17.8151 20.3656 18.1533 20.0119C18.5024 19.6582 18.5024 19.0877 18.1642 18.7226L14.4766 14.8547C14.3566 14.7292 14.3675 14.5466 14.4766 14.4211C14.5966 14.307 14.7712 14.307 14.8912 14.4211L17.3568 16.9997C17.695 17.3534 18.2515 17.3648 18.5897 16.9997C18.9388 16.646 18.9388 16.0755 18.5897 15.7104L17.6187 14.809Z" />
        <path fill-rule="evenodd" clip-rule="evenodd" d="M16.7677 7.89473L16.4404 7.55244C15.9931 7.07323 15.3712 6.7994 14.7275 6.7994C14.3238 6.7994 13.9202 6.94773 13.6038 7.22156L10.5381 10.2451C10.4835 10.2794 10.418 10.3706 10.418 10.3706C10.1235 10.6673 10.0144 11.3861 10.4071 11.8653C10.7235 12.2418 11.5309 12.4358 11.9018 12.0479L13.7565 10.3592C14.3347 9.95989 14.9239 9.8572 15.7312 10.6559L18.7206 13.554C19.0042 13.7365 19.3534 13.9533 19.6698 13.8392C19.7789 13.805 19.8225 13.7137 20.0189 13.5311L20.0298 13.5197C20.0407 13.5083 20.0516 13.4855 20.0625 13.4741C20.0625 13.4741 20.2807 13.2003 20.3571 13.1204C20.7171 12.721 20.728 12.1049 20.3571 11.7056L16.7677 7.89473Z" />
        <path fill-rule="evenodd" clip-rule="evenodd" d="M23.6192 7.67795L19.4952 3.3993C18.9279 2.806 17.9351 2.88587 17.2805 3.55904C16.6259 4.23221 16.5604 5.2705 17.1168 5.8638L21.2408 10.1424C21.8081 10.7358 22.8009 10.6559 23.4555 9.98271C24.1101 9.30954 24.1865 8.27125 23.6192 7.67795Z" />
    </symbol>
    <symbol id="icon-background" viewBox="0 0 55 56" >
        <path
                d="M0.5 26.9C0.5 20.6632 0.50106 16.0343 0.978712 12.4798C1.45445 8.93968 2.39467 6.54072 4.21866 4.71914C6.043 2.89722 8.44237 1.95698 11.9819 1.48062C15.5356 1.00234 20.1633 1 26.4 1H28.6C34.8368 1 39.4657 1.00106 43.0202 1.47871C46.5603 1.95445 48.9593 2.89467 50.7809 4.71867C52.6028 6.543 53.543 8.94237 54.0194 12.4819C54.4977 16.0356 54.5 20.6633 54.5 26.9V29.1C54.5 35.3368 54.4989 39.9657 54.0213 43.5202C53.5456 47.0603 52.6053 49.4593 50.7813 51.2809C48.957 53.1028 46.5576 54.043 43.0181 54.5194C39.4644 54.9977 34.8367 55 28.6 55H26.4C20.1632 55 15.5343 54.9989 11.9798 54.5213C8.43968 54.0455 6.04072 53.1053 4.21913 51.2813C2.39721 49.457 1.45698 47.0576 0.980618 43.5181C0.502338 39.9644 0.5 35.3367 0.5 29.1V26.9Z"
        />
    </symbol>


    <symbol id="icon-personal-wallet" viewBox="0 0 25 24" >
        <path
                d="M3.5 3H21.5C21.7652 3 22.0196 3.10536 22.2071 3.29289C22.3946 3.48043 22.5 3.73478 22.5 4V20C22.5 20.2652 22.3946 20.5196 22.2071 20.7071C22.0196 20.8946 21.7652 21 21.5 21H3.5C3.23478 21 2.98043 20.8946 2.79289 20.7071C2.60536 20.5196 2.5 20.2652 2.5 20V4C2.5 3.73478 2.60536 3.48043 2.79289 3.29289C2.98043 3.10536 3.23478 3 3.5 3ZM20.5 12H4.5V19H20.5V12ZM20.5 8V5H4.5V8H20.5Z"
        />
    </symbol>


    <symbol id="icon-chat-smile" viewBox="0 0 24 24" >
        <path
                d="M0 11.52C0 6.0893 -1.59685e-06 3.37116 1.6867 1.6867C3.37339 0.0022325 6.0893 0 11.52 0H12.48C17.9107 0 20.6288 0 22.3133 1.6867C23.9978 3.3734 24 6.0893 24 11.52V12.48C24 17.9107 24 20.6288 22.3133 22.3133C20.6266 23.9978 17.9107 24 12.48 24H11.52C6.0893 24 3.37116 24 1.6867 22.3133C0.00223091 20.6266 0 17.9107 0 12.48V11.52Z"
                fill="var(--icon-bg)"
        />
        <path
                d="M6.81395 17.1852C6.13198 16.505 5.59115 15.6968 5.22253 14.8069C4.85392 13.917 4.66479 12.963 4.66602 11.9998C4.66602 7.94964 7.94915 4.6665 11.9994 4.6665C16.0496 4.6665 19.3327 7.94964 19.3327 11.9998C19.3327 16.05 16.0496 19.3332 11.9994 19.3332H4.66602L6.81395 17.1852ZM9.06602 12.7332C9.06602 13.5111 9.37507 14.2572 9.92517 14.8073C10.4753 15.3575 11.2214 15.6665 11.9994 15.6665C12.7773 15.6665 13.5234 15.3575 14.0735 14.8073C14.6236 14.2572 14.9327 13.5111 14.9327 12.7332H9.06602Z"
                fill="var(--icon-fill)"
        />
    </symbol>


    <symbol id="icon-check-promocode" viewBox="0 0 24 24" >
        <path
                fill-rule="evenodd"
                clip-rule="evenodd"
                d="M1 12C1 5.92487 5.92487 1 12 1C18.0751 1 23 5.92487 23 12C23 18.0751 18.0751 23 12 23C5.92487 23 1 18.0751 1 12Z"
                fill="white"
        />
        <path
                fill-rule="evenodd"
                clip-rule="evenodd"
                d="M17.3107 8.04297C17.7012 8.43349 17.7012 9.06666 17.3107 9.45718L11.1036 15.9572C10.7131 16.3477 10.0799 16.3477 9.68938 15.9572L6.68938 12.9572C6.29885 12.5667 6.29885 11.9335 6.68938 11.543C7.0799 11.1524 7.71307 11.1524 8.10359 11.543L10.3965 13.8359L15.8965 8.04297C16.287 7.65244 16.9202 7.65244 17.3107 8.04297Z"
                fill="#8833FF"
        />
    </symbol>


    <symbol id="icon-check-square" width="24" height="25" viewBox="0 0 24 25" >
        <path
                fill-rule="evenodd"
                clip-rule="evenodd"
                d="M22.7071 3.79289C23.0976 4.18342 23.0976 4.81658 22.7071 5.20711L12.7071 15.2071C12.3166 15.5976 11.6834 15.5976 11.2929 15.2071L8.29289 12.2071C7.90237 11.8166 7.90237 11.1834 8.29289 10.7929C8.68342 10.4024 9.31658 10.4024 9.70711 10.7929L12 13.0858L21.2929 3.79289C21.6834 3.40237 22.3166 3.40237 22.7071 3.79289Z"
                fill="white"
        />
        <path
                fill-rule="evenodd"
                clip-rule="evenodd"
                d="M5 4.5C4.73478 4.5 4.48043 4.60536 4.29289 4.79289C4.10536 4.98043 4 5.23478 4 5.5V19.5C4 19.7652 4.10536 20.0196 4.29289 20.2071C4.48043 20.3946 4.73478 20.5 5 20.5H19C19.2652 20.5 19.5196 20.3946 19.7071 20.2071C19.8946 20.0196 20 19.7652 20 19.5V12.5C20 11.9477 20.4477 11.5 21 11.5C21.5523 11.5 22 11.9477 22 12.5V19.5C22 20.2957 21.6839 21.0587 21.1213 21.6213C20.5587 22.1839 19.7957 22.5 19 22.5H5C4.20435 22.5 3.44129 22.1839 2.87868 21.6213C2.31607 21.0587 2 20.2957 2 19.5V5.5C2 4.70435 2.31607 3.94129 2.87868 3.37868C3.44129 2.81607 4.20435 2.5 5 2.5H16C16.5523 2.5 17 2.94772 17 3.5C17 4.05228 16.5523 4.5 16 4.5H5Z"
                fill="white"
        />
    </symbol>


    <symbol id="icon-circle-check" viewBox="0 0 24 25" >
        <path
                fill-rule="evenodd"
                clip-rule="evenodd"
                d="M1 12.5C1 6.42487 5.92487 1.5 12 1.5C18.0751 1.5 23 6.42487 23 12.5C23 18.5751 18.0751 23.5 12 23.5C5.92487 23.5 1 18.5751 1 12.5Z"
                fill="currentColor"
        />
        <path
                fill-rule="evenodd"
                clip-rule="evenodd"
                d="M17.3107 8.54297C17.7012 8.93349 17.7012 9.56666 17.3107 9.95718L11.1036 16.4572C10.7131 16.8477 10.0799 16.8477 9.68938 16.4572L6.68938 13.4572C6.29885 13.0667 6.29885 12.4335 6.68938 12.043C7.0799 11.6524 7.71307 11.6524 8.10359 12.043L10.3965 14.3359L15.8965 8.54297C16.287 8.15244 16.9202 8.15244 17.3107 8.54297Z"
                fill="var(--fill)"
        />
    </symbol>


    <symbol id="icon-clean" viewBox="0 0 24 24" >
        <path
                fill-rule="evenodd"
                clip-rule="evenodd"
                d="M1.6867 1.6867C0 3.37116 0 6.0893 0 11.52V12.48C0 17.9107 0.00223091 20.6266 1.6867 22.3133C3.37116 24 6.0893 24 11.52 24H12.48C17.9107 24 20.6266 23.9978 22.3133 22.3133C24 20.6288 24 17.9107 24 12.48V12.48V11.52C24 6.0893 23.9978 3.3734 22.3133 1.6867C20.6288 0 17.9107 0 12.48 0H11.52C6.0893 0 3.37339 0.0022325 1.6867 1.6867ZM17.7489 6.25105C18.0837 6.58579 18.0837 7.1285 17.7489 7.46323L13.2122 12L17.7489 16.5368C18.0837 16.8715 18.0837 17.4142 17.7489 17.7489C17.4142 18.0837 16.8715 18.0837 16.5368 17.7489L12 13.2122L7.46323 17.7489C7.1285 18.0837 6.58579 18.0837 6.25105 17.7489C5.91632 17.4142 5.91632 16.8715 6.25105 16.5368L10.7878 12L6.25105 7.46323C5.91632 7.1285 5.91632 6.58579 6.25105 6.25105C6.58579 5.91632 7.1285 5.91632 7.46323 6.25105L12 10.7878L16.5368 6.25105C16.8715 5.91632 17.4142 5.91632 17.7489 6.25105Z"
        />
    </symbol>


    <symbol id="icon-close" viewBox="0 0 20 20" >
        <path
                fill-rule="evenodd"
                clip-rule="evenodd"
                d="M15.5896 4.41083C15.915 4.73626 15.915 5.2639 15.5896 5.58934L5.58958 15.5893C5.26414 15.9148 4.73651 15.9148 4.41107 15.5893C4.08563 15.2639 4.08563 14.7363 4.41107 14.4108L14.4111 4.41083C14.7365 4.08539 15.2641 4.08539 15.5896 4.41083Z"
        />
        <path
                fill-rule="evenodd"
                clip-rule="evenodd"
                d="M4.41107 4.41083C4.73651 4.08539 5.26414 4.08539 5.58958 4.41083L15.5896 14.4108C15.915 14.7363 15.915 15.2639 15.5896 15.5893C15.2641 15.9148 14.7365 15.9148 14.4111 15.5893L4.41107 5.58934C4.08563 5.2639 4.08563 4.73626 4.41107 4.41083Z"
        />
    </symbol>


    <symbol id="icon-credit-card" viewBox="0 0 25 25" >
        <g clip-path="url(#clip0_873_13621)">
            <path
                    fill-rule="evenodd"
                    clip-rule="evenodd"
                    d="M3.5 5.5C2.94772 5.5 2.5 5.94772 2.5 6.5V18.5C2.5 19.0523 2.94772 19.5 3.5 19.5H21.5C22.0523 19.5 22.5 19.0523 22.5 18.5V6.5C22.5 5.94772 22.0523 5.5 21.5 5.5H3.5ZM0.5 6.5C0.5 4.84315 1.84315 3.5 3.5 3.5H21.5C23.1569 3.5 24.5 4.84315 24.5 6.5V18.5C24.5 20.1569 23.1569 21.5 21.5 21.5H3.5C1.84315 21.5 0.5 20.1569 0.5 18.5V6.5Z"
            />
            <path
                    fill-rule="evenodd"
                    clip-rule="evenodd"
                    d="M0.5 10.5C0.5 9.94772 0.947715 9.5 1.5 9.5H23.5C24.0523 9.5 24.5 9.94772 24.5 10.5C24.5 11.0523 24.0523 11.5 23.5 11.5H1.5C0.947715 11.5 0.5 11.0523 0.5 10.5Z"
            />
        </g>
        <defs>
            <clipPath>
                <rect width="24" height="24" transform="translate(0.5 0.5)"/>
            </clipPath>
        </defs>
    </symbol>


    <symbol id="icon-dzen" viewBox="0 0 24 24" >
        <path
                fill-rule="evenodd"
                clip-rule="evenodd"
                d="M1.6867 1.6867C0 3.37116 0 6.0893 0 11.52V12.48C0 17.9107 0.00223091 20.6266 1.6867 22.3133C3.37116 24 6.0893 24 11.52 24H11.52H12.48C17.9107 24 20.6266 23.9978 22.3133 22.3133C24 20.6288 24 17.9107 24 12.48V12.48V11.52C24 6.0893 23.9978 3.37339 22.3133 1.6867C20.6288 0 17.9107 0 12.48 0H11.52C6.0893 0 3.37339 0.00223091 1.6867 1.6867ZM10.2317 10.2353C11.4741 8.99176 11.6996 7.12869 11.7409 3.81445H12.2309C12.2722 7.12869 12.4988 8.99287 13.7401 10.2353C14.9814 11.4777 16.8434 11.7043 20.1543 11.7456V12.2357C16.8434 12.277 14.9825 12.5025 13.7401 13.746C12.4977 14.9895 12.2722 16.8526 12.2309 20.1668H11.7409C11.6996 16.8526 11.4741 14.9884 10.2317 13.746C8.98924 12.5036 7.12841 12.277 3.81641 12.2357V11.7456C7.12841 11.7043 8.98924 11.4788 10.2317 10.2353Z"
        />
    </symbol>


    <symbol id="icon-entry" width="25" height="25" viewBox="0 0 25 25" >
        <path
                d="M4.25 15.5H6.25V20.5H18.25V4.5H6.25V9.5H4.25V3.5C4.25 3.23478 4.35536 2.98043 4.54289 2.79289C4.73043 2.60536 4.98478 2.5 5.25 2.5H19.25C19.5152 2.5 19.7696 2.60536 19.9571 2.79289C20.1446 2.98043 20.25 3.23478 20.25 3.5V21.5C20.25 21.7652 20.1446 22.0196 19.9571 22.2071C19.7696 22.3946 19.5152 22.5 19.25 22.5H5.25C4.98478 22.5 4.73043 22.3946 4.54289 22.2071C4.35536 22.0196 4.25 21.7652 4.25 21.5V15.5ZM10.25 11.5V8.5L15.25 12.5L10.25 16.5V13.5H2.25V11.5H10.25Z"
                fill="#F9FAFC"
        />
    </symbol>


    <symbol id="icon-eye" viewBox="0 0 24 24" >
        <path
                d="M0 11.52C0 6.0893 -1.59685e-06 3.37116 1.6867 1.6867C3.37339 0.0022325 6.0893 0 11.52 0H12.48C17.9107 0 20.6288 0 22.3133 1.6867C23.9978 3.3734 24 6.0893 24 11.52V12.48C24 17.9107 24 20.6288 22.3133 22.3133C20.6266 23.9978 17.9107 24 12.48 24H11.52C6.0893 24 3.37116 24 1.6867 22.3133C0.00223091 20.6266 0 17.9107 0 12.48V11.52Z"
                fill="var(--icon-bg)"
        />
        <path
                d="M4.06445 11.9999C4.75379 8.24524 8.04425 5.3999 11.9984 5.3999C15.9525 5.3999 19.2423 8.24524 19.9323 11.9999C19.243 15.7546 15.9525 18.5999 11.9984 18.5999C8.04425 18.5999 4.75452 15.7546 4.06445 11.9999ZM11.9984 15.6666C12.9708 15.6666 13.9035 15.2803 14.5911 14.5926C15.2787 13.905 15.6651 12.9724 15.6651 11.9999C15.6651 11.0274 15.2787 10.0948 14.5911 9.40718C13.9035 8.71954 12.9708 8.33324 11.9984 8.33324C11.0259 8.33324 10.0933 8.71954 9.40566 9.40718C8.71803 10.0948 8.33172 11.0274 8.33172 11.9999C8.33172 12.9724 8.71803 13.905 9.40566 14.5926C10.0933 15.2803 11.0259 15.6666 11.9984 15.6666ZM11.9984 14.1999C11.4149 14.1999 10.8553 13.9681 10.4428 13.5555C10.0302 13.143 9.79839 12.5834 9.79839 11.9999C9.79839 11.4164 10.0302 10.8568 10.4428 10.4443C10.8553 10.0317 11.4149 9.7999 11.9984 9.7999C12.5819 9.7999 13.1414 10.0317 13.554 10.4443C13.9666 10.8568 14.1984 11.4164 14.1984 11.9999C14.1984 12.5834 13.9666 13.143 13.554 13.5555C13.1414 13.9681 12.5819 14.1999 11.9984 14.1999Z"
                fill="var(--icon-fill)"
        />
    </symbol>


    <symbol id="icon-fb" viewBox="0 0 24 24" >
        <path
                fill-rule="evenodd"
                clip-rule="evenodd"
                d="M1.6867 1.6867C0 3.37116 0 6.0893 0 11.52V12.48C0 17.9107 0.00223091 20.6266 1.6867 22.3133C3.37116 24 6.0893 24 11.52 24H12.48C17.9107 24 20.6266 23.9978 22.3133 22.3133C24 20.6288 24 17.9107 24 12.48V12.48V11.52C24 6.0893 23.9978 3.3734 22.3133 1.6867C20.6288 0 17.9107 0 12.48 0H11.52C6.0893 0 3.37339 0.0022325 1.6867 1.6867ZM15.1822 13.0906H13.011L13.0077 19.6287H10.1054V13.0873H7.74219V10.3814H10.1054V8.32186C10.1054 5.97544 11.4985 4.67944 13.6194 4.67944C14.3165 4.68934 15.012 4.75053 15.7001 4.86251V7.16651H14.5269C13.3716 7.16651 13.011 7.88763 13.011 8.62884V10.3814H15.5908L15.1822 13.0906Z"
        />
    </symbol>


    <symbol id="icon-fire" viewBox="0 0 24 24" >
        <path
                d="M0 11.52C0 6.0893 -1.59685e-06 3.37116 1.6867 1.6867C3.37339 0.0022325 6.0893 0 11.52 0H12.48C17.9107 0 20.6288 0 22.3133 1.6867C23.9978 3.3734 24 6.0893 24 11.52V12.48C24 17.9107 24 20.6288 22.3133 22.3133C20.6266 23.9978 17.9107 24 12.48 24H11.52C6.0893 24 3.37116 24 1.6867 22.3133C0.00223091 20.6266 0 17.9107 0 12.48V11.52Z"
                fill="var(--icon-bg)"
        />
        <g clip-path="url(#clip0_822_2056)">
            <path
                    d="M11.9995 20.0667C10.8974 20.0666 9.8208 19.7354 8.9092 19.1161C7.99759 18.4968 7.29307 17.6178 6.88699 16.5933C6.4809 15.5688 6.39197 14.4458 6.63174 13.3702C6.87151 12.2945 7.4289 11.3156 8.23166 10.5605C9.2158 9.63431 11.6329 7.96671 11.2662 4.30005C15.6662 7.23338 17.8662 10.1667 13.4662 14.5667C14.1995 14.5667 15.2995 14.5667 17.1329 12.7554C17.3309 13.3222 17.4995 13.9316 17.4995 14.5667C17.4995 16.0254 16.9201 17.4244 15.8886 18.4558C14.8572 19.4873 13.4582 20.0667 11.9995 20.0667Z"
                    fill="var(--icon-fill)"
            />
        </g>
        <defs>
            <clipPath>
                <rect width="17.6" height="17.6" transform="translate(3.19922 3.19995)"/>
            </clipPath>
        </defs>
    </symbol>


    <symbol id="icon-fire-fill" viewBox="0 0 24 24" >
        <path
                d="M11.9994 23C10.4965 22.9999 9.02836 22.5483 7.78527 21.7037C6.54217 20.8592 5.58146 19.6606 5.02771 18.2635C4.47395 16.8664 4.35269 15.3352 4.67964 13.8683C5.0066 12.4015 5.76669 11.0667 6.86136 10.037C8.20336 8.774 11.4994 6.5 10.9994 1.5C16.9994 5.5 19.9994 9.5 13.9994 15.5C14.9994 15.5 16.4994 15.5 18.9994 13.03C19.2694 13.803 19.4994 14.634 19.4994 15.5C19.4994 17.4891 18.7092 19.3968 17.3027 20.8033C15.8961 22.2098 13.9885 23 11.9994 23Z"
        />
    </symbol>


    <symbol id="icon-friends" viewBox="0 0 24 24" >
        <path
                d="M0 11.52C0 6.0893 -1.59685e-06 3.37116 1.6867 1.6867C3.37339 0.0022325 6.0893 0 11.52 0H12.48C17.9107 0 20.6288 0 22.3133 1.6867C23.9978 3.3734 24 6.0893 24 11.52V12.48C24 17.9107 24 20.6288 22.3133 22.3133C20.6266 23.9978 17.9107 24 12.48 24H11.52C6.0893 24 3.37116 24 1.6867 22.3133C0.00223091 20.6266 0 17.9107 0 12.48V11.52Z"
                fill="var(--icon-bg)"
        />
        <g clip-path="url(#clip0_822_2042)">
            <path
                    d="M4.66602 19.3333C4.66602 17.7774 5.28411 16.2852 6.38432 15.185C7.48454 14.0848 8.97675 13.4667 10.5327 13.4667C12.0886 13.4667 13.5808 14.0848 14.681 15.185C15.7813 16.2852 16.3993 17.7774 16.3993 19.3333H4.66602ZM10.5327 12.7333C8.10168 12.7333 6.13268 10.7643 6.13268 8.33335C6.13268 5.90235 8.10168 3.93335 10.5327 3.93335C12.9637 3.93335 14.9327 5.90235 14.9327 8.33335C14.9327 10.7643 12.9637 12.7333 10.5327 12.7333ZM15.9322 14.3709C17.054 14.6592 18.0562 15.294 18.7961 16.185C19.5361 17.076 19.9761 18.1777 20.0535 19.3333H17.866C17.866 17.4193 17.1327 15.6769 15.9322 14.3709ZM14.4487 12.7018C15.0632 12.1522 15.5547 11.4789 15.8908 10.726C16.227 9.9732 16.4003 9.15783 16.3993 8.33335C16.4009 7.33122 16.1446 6.34556 15.655 5.47115C16.4856 5.63805 17.2328 6.08742 17.7695 6.74289C18.3063 7.39836 18.5995 8.21948 18.5993 9.06668C18.5995 9.58916 18.4881 10.1056 18.2724 10.5815C18.0567 11.0574 17.7417 11.4817 17.3487 11.8259C16.9556 12.1701 16.4936 12.4263 15.9934 12.5774C15.4932 12.7285 14.9666 12.7709 14.4487 12.7018Z"
                    fill="var(--icon-fill)"
            />
        </g>
        <defs>
            <clipPath>
                <rect width="17.6" height="17.6" transform="translate(3.19922 3.19995)"/>
            </clipPath>
        </defs>
    </symbol>


    <symbol id="icon-gear" viewBox="0 0 24 24" >
        <path
                d="M5.33551 4.54507C6.36224 3.62535 7.5682 2.92806 8.87751 2.49707C9.25189 2.96609 9.72718 3.3447 10.268 3.60474C10.8089 3.86478 11.4014 3.99956 12.0015 3.99907C12.6016 3.99956 13.1941 3.86478 13.735 3.60474C14.2759 3.3447 14.7511 2.96609 15.1255 2.49707C16.4348 2.92806 17.6408 3.62535 18.6675 4.54507C18.449 5.10352 18.3591 5.70401 18.4045 6.30196C18.4498 6.89991 18.6293 7.47997 18.9295 7.99907C19.2291 8.51916 19.6421 8.96502 20.1378 9.30349C20.6334 9.64196 21.199 9.86433 21.7925 9.95407C22.0731 11.303 22.0731 12.6952 21.7925 14.0441C20.6325 14.2221 19.5625 14.9041 18.9295 15.9991C18.6291 16.5183 18.4496 17.0985 18.4042 17.6967C18.3589 18.2948 18.4489 18.8955 18.6675 19.4541C17.6407 20.3734 16.4347 21.0704 15.1255 21.5011C14.751 21.0322 14.2757 20.6538 13.7349 20.394C13.194 20.1341 12.6016 19.9995 12.0015 20.0001C11.4014 19.9996 10.8089 20.1344 10.268 20.3944C9.72718 20.6544 9.25189 21.033 8.87751 21.5021C7.56828 21.0714 6.36233 20.3744 5.33551 19.4551C5.55416 18.8965 5.64415 18.2958 5.59879 17.6977C5.55344 17.0995 5.3739 16.5193 5.07351 16.0001C4.7738 15.4802 4.36076 15.0345 3.8651 14.6962C3.36943 14.3579 2.80389 14.1357 2.21051 14.0461C1.92983 12.6968 1.92983 11.3043 2.21051 9.95507C2.80398 9.86533 3.36958 9.64296 3.86525 9.30449C4.36092 8.96602 4.77392 8.52016 5.07351 8.00007C5.37374 7.48097 5.5532 6.90091 5.59856 6.30296C5.64391 5.70501 5.55401 5.10452 5.33551 4.54607V4.54507ZM13.5015 14.5971C13.8455 14.4015 14.1473 14.1399 14.3897 13.8272C14.6321 13.5145 14.8103 13.157 14.9139 12.7751C15.0176 12.3933 15.0447 11.9948 14.9937 11.6024C14.9427 11.2101 14.8146 10.8317 14.6168 10.4891C14.419 10.1465 14.1553 9.84634 13.8411 9.60601C13.5268 9.36569 13.1681 9.1899 12.7856 9.08877C12.4031 8.98765 12.0043 8.96318 11.6123 9.01678C11.2203 9.07037 10.8428 9.20098 10.5015 9.40107C9.81809 9.80172 9.32089 10.4564 9.1184 11.2223C8.91591 11.9882 9.02458 12.8031 9.42069 13.4892C9.8168 14.1752 10.4682 14.6768 11.2327 14.8843C11.9972 15.0919 12.8128 14.9886 13.5015 14.5971Z"
        />
    </symbol>


    <symbol id="icon-heart" viewBox="0 0 24 24" >
        <path
                d="M0 11.52C0 6.0893 -1.59685e-06 3.37116 1.6867 1.6867C3.37339 0.0022325 6.0893 0 11.52 0H12.48C17.9107 0 20.6288 0 22.3133 1.6867C23.9978 3.3734 24 6.0893 24 11.52V12.48C24 17.9107 24 20.6288 22.3133 22.3133C20.6266 23.9978 17.9107 24 12.48 24H11.52C6.0893 24 3.37116 24 1.6867 22.3133C0.00223091 20.6266 0 17.9107 0 12.48V11.52Z"
                fill="var(--icon-bg)"
        />
        <path
                d="M18.7303 12.5822L18.7398 12.5925L11.999 19.3333L5.25825 12.5925L5.26778 12.5822C4.485 11.6696 4.076 10.4949 4.12275 9.29349C4.1695 8.09208 4.66854 6.9527 5.51987 6.10369C6.3712 5.25468 7.51193 4.75875 8.71347 4.71528C9.91501 4.67181 11.0886 5.08401 11.999 5.86928C12.9095 5.08401 14.0831 4.67181 15.2846 4.71528C16.4862 4.75875 17.6269 5.25468 18.4782 6.10369C19.3296 6.9527 19.8286 8.09208 19.8753 9.29349C19.9221 10.4949 19.5131 11.6696 18.7303 12.5822Z"
                fill="var(--icon-fill)"
        />
    </symbol>


    <symbol id="icon-hide" viewBox="0 0 24 24" >
        <path
                fill-rule="evenodd"
                clip-rule="evenodd"
                d="M2.35466 1.6867C0.667969 3.37116 0.667969 6.0893 0.667969 11.52V12.48C0.667969 17.9107 0.6702 20.6266 2.35466 22.3133C4.03913 24 6.75727 24 12.188 24H13.148C18.5787 24 21.2946 23.9978 22.9813 22.3133C24.668 20.6288 24.668 17.9107 24.668 12.48V12.48V11.52C24.668 6.0893 24.6657 3.3734 22.9813 1.6867C21.2968 0 18.5787 0 13.148 0H12.188C6.75727 0 4.04136 0.0022325 2.35466 1.6867ZM4.88945 5.25944L7.18258 7.55184H7.18332C5.90851 8.7317 5.04934 10.2921 4.73398 12.0002C5.42405 15.7549 8.71378 18.6002 12.6679 18.6002C14.1953 18.6027 15.6916 18.1695 16.9814 17.3514L19.4087 19.7787L20.4464 18.7418L5.92712 4.22178L4.88945 5.25944ZM13.6161 13.9861L14.6897 15.0597C13.9846 15.5263 13.1399 15.7349 12.2987 15.6502C11.4574 15.5654 10.6713 15.1926 10.0735 14.5947C9.47561 13.9968 9.10274 13.2107 9.01799 12.3695C8.93325 11.5282 9.14184 10.6835 9.60845 9.97844L10.6821 11.052C10.4856 11.4627 10.4213 11.9241 10.4981 12.3728C10.575 12.8215 10.7891 13.2353 11.111 13.5572C11.4328 13.8791 11.8466 14.0932 12.2953 14.17C12.744 14.2468 13.2055 14.1826 13.6161 13.9861ZM12.6679 5.40024C11.6266 5.40024 10.63 5.59824 9.71552 5.95758V5.95831L12.1304 8.37171C12.6968 8.28763 13.275 8.33737 13.8188 8.51696C14.3625 8.69656 14.8566 9.001 15.2615 9.40591C15.6664 9.81081 15.9709 10.3049 16.1505 10.8487C16.3301 11.3924 16.3798 11.9706 16.2957 12.537L19.1264 15.3677C19.8721 14.3745 20.3771 13.2218 20.6019 12.0002C19.9118 8.24558 16.6221 5.40024 12.6679 5.40024Z"
        />
    </symbol>


    <symbol id="icon-input-fail" width="24" height="24" viewBox="0 0 24 24" >
        <path fill-rule="evenodd" clip-rule="evenodd"
              d="M18.7071 5.29289C19.0976 5.68342 19.0976 6.31658 18.7071 6.70711L6.70711 18.7071C6.31658 19.0976 5.68342 19.0976 5.29289 18.7071C4.90237 18.3166 4.90237 17.6834 5.29289 17.2929L17.2929 5.29289C17.6834 4.90237 18.3166 4.90237 18.7071 5.29289Z"
              fill="#EB5757"/>
        <path fill-rule="evenodd" clip-rule="evenodd"
              d="M5.29289 5.29289C5.68342 4.90237 6.31658 4.90237 6.70711 5.29289L18.7071 17.2929C19.0976 17.6834 19.0976 18.3166 18.7071 18.7071C18.3166 19.0976 17.6834 19.0976 17.2929 18.7071L5.29289 6.70711C4.90237 6.31658 4.90237 5.68342 5.29289 5.29289Z"
              fill="#EB5757"/>
    </symbol>


    <symbol id="icon-instagram" viewBox="0 0 24 25" >
        <path
                fill-rule="evenodd"
                clip-rule="evenodd"
                d="M1.6867 2.1867C0 3.87116 0 6.5893 0 12.02V12.98C0 18.4107 0.00223091 21.1266 1.6867 22.8133C3.37116 24.5 6.0893 24.5 11.52 24.5H12.48C17.9107 24.5 20.6266 24.4978 22.3133 22.8133C24 21.1288 24 18.4107 24 12.98V12.98V12.02C24 6.5893 23.9978 3.8734 22.3133 2.1867C20.6288 0.5 17.9107 0.5 12.48 0.5H11.52C6.0893 0.5 3.37339 0.502233 1.6867 2.1867ZM14.8854 5.542C14.1392 5.507 13.9019 5.5 12 5.5C10.0981 5.5 9.8608 5.5091 9.1146 5.542C8.3684 5.577 7.8616 5.6939 7.415 5.8675C6.9477 6.04301 6.52437 6.31846 6.1746 6.6746C5.81816 7.02412 5.54267 7.44753 5.3675 7.915C5.1939 8.3616 5.077 8.8684 5.042 9.6146C5.007 10.3608 5 10.5981 5 12.5C5 14.4019 5.0091 14.6392 5.042 15.3854C5.077 16.1309 5.1939 16.6391 5.3675 17.085C5.54315 17.5522 5.81858 17.9755 6.1746 18.3254C6.52427 18.6817 6.94763 18.9571 7.415 19.1325C7.8616 19.3054 8.3691 19.423 9.1146 19.458C9.8608 19.493 10.0981 19.5 12 19.5C13.9019 19.5 14.1392 19.4909 14.8854 19.458C15.6309 19.423 16.1391 19.3054 16.585 19.1325C17.0521 18.9566 17.4754 18.6812 17.8254 18.3254C18.1818 17.9758 18.4573 17.5524 18.6325 17.085C18.8054 16.6384 18.923 16.1309 18.958 15.3854C18.993 14.6392 19 14.4019 19 12.5C19 10.5981 18.9909 10.3608 18.958 9.6146C18.923 8.8691 18.8054 8.3609 18.6325 7.915C18.4568 7.44781 18.1813 7.02453 17.8254 6.6746C17.4362 6.2861 17.047 6.0453 16.585 5.8675C16.1384 5.6939 15.6309 5.577 14.8854 5.542ZM9.52513 10.0251C10.1815 9.36875 11.0717 9 12 9C12.9283 9 13.8185 9.36875 14.4749 10.0251C15.1313 10.6815 15.5 11.5717 15.5 12.5C15.5 13.4283 15.1313 14.3185 14.4749 14.9749C13.8185 15.6313 12.9283 16 12 16C11.0717 16 10.1815 15.6313 9.52513 14.9749C8.86875 14.3185 8.5 13.4283 8.5 12.5C8.5 11.5717 8.86875 10.6815 9.52513 10.0251ZM16.2937 8.20628C16.4578 8.37038 16.55 8.59294 16.55 8.825C16.55 9.05706 16.4578 9.27962 16.2937 9.44372C16.1296 9.60781 15.9071 9.7 15.675 9.7C15.4429 9.7 15.2204 9.60781 15.0563 9.44372C14.8922 9.27962 14.8 9.05706 14.8 8.825C14.8 8.59294 14.8922 8.37038 15.0563 8.20628C15.2204 8.04219 15.4429 7.95 15.675 7.95C15.9071 7.95 16.1296 8.04219 16.2937 8.20628ZM13.4849 11.0151C13.0911 10.6212 12.557 10.4 12 10.4C11.443 10.4 10.9089 10.6212 10.5151 11.0151C10.1212 11.4089 9.9 11.943 9.9 12.5C9.9 13.057 10.1212 13.5911 10.5151 13.9849C10.9089 14.3788 11.443 14.6 12 14.6C12.557 14.6 13.0911 14.3788 13.4849 13.9849C13.8788 13.5911 14.1 13.057 14.1 12.5C14.1 11.943 13.8788 11.4089 13.4849 11.0151Z"
        />
    </symbol>


    <symbol id="icon-login" viewBox="0 0 24 24" >
        <path
                d="M10 11H4V3C4 2.73478 4.10536 2.48043 4.29289 2.29289C4.48043 2.10536 4.73478 2 5 2H19C19.2652 2 19.5196 2.10536 19.7071 2.29289C19.8946 2.48043 20 2.73478 20 3V21C20 21.2652 19.8946 21.5196 19.7071 21.7071C19.5196 21.8946 19.2652 22 19 22H5C4.73478 22 4.48043 21.8946 4.29289 21.7071C4.10536 21.5196 4 21.2652 4 21V13H10V16L15 12L10 8V11Z"
        />
    </symbol>


    <symbol id="icon-login-box" viewBox="0 0 20 20" >
        <path
                d="M3.33268 12.5003H4.99935V16.667H14.9993V3.33366H4.99935V7.50033H3.33268V2.50033C3.33268 2.27931 3.42048 2.06735 3.57676 1.91107C3.73304 1.75479 3.945 1.66699 4.16602 1.66699H15.8327C16.0537 1.66699 16.2657 1.75479 16.4219 1.91107C16.5782 2.06735 16.666 2.27931 16.666 2.50033V17.5003C16.666 17.7213 16.5782 17.9333 16.4219 18.0896C16.2657 18.2459 16.0537 18.3337 15.8327 18.3337H4.16602C3.945 18.3337 3.73304 18.2459 3.57676 18.0896C3.42048 17.9333 3.33268 17.7213 3.33268 17.5003V12.5003ZM8.33268 9.16699V6.66699L12.4993 10.0003L8.33268 13.3337V10.8337H1.66602V9.16699H8.33268Z"
        />
    </symbol>


    <symbol id="icon-logout" viewBox="0 0 24 24" >
        <path
                d="M4 18H6V20H18V4H6V6H4V3C4 2.73478 4.10536 2.48043 4.29289 2.29289C4.48043 2.10536 4.73478 2 5 2H19C19.2652 2 19.5196 2.10536 19.7071 2.29289C19.8946 2.48043 20 2.73478 20 3V21C20 21.2652 19.8946 21.5196 19.7071 21.7071C19.5196 21.8946 19.2652 22 19 22H5C4.73478 22 4.48043 21.8946 4.29289 21.7071C4.10536 21.5196 4 21.2652 4 21V18ZM6 11H13V13H6V16L1 12L6 8V11Z"
                fill="#C3CAD9"
        />
    </symbol>


    <symbol id="icon-mail" viewBox="0 0 25 25" >
        <path
                d="M20.75 4.5H4.75C3.646 4.5 2.75 5.396 2.75 6.5V18.5C2.75 19.604 3.646 20.5 4.75 20.5H20.75C21.854 20.5 22.75 19.604 22.75 18.5V6.5C22.75 5.396 21.854 4.5 20.75 4.5ZM20.75 9.2L12.75 14.534L4.75 9.2V6.797L12.75 12.13L20.75 6.797V9.2Z"
        />
    </symbol>


    <symbol id="icon-mastercard" viewBox="0 0 24 24" >
        <path
                d="M11.9996 6.65404C12.8093 7.28958 13.4638 8.10099 13.9135 9.02684C14.3633 9.95269 14.5966 10.9687 14.5956 11.998C14.5963 13.027 14.3629 14.0427 13.9131 14.9681C13.4634 15.8936 12.809 16.7047 11.9996 17.34C11.1901 16.7046 10.5357 15.8933 10.0859 14.9677C9.63619 14.042 9.40287 13.0262 9.40364 11.997C9.40287 10.9679 9.63619 9.95206 10.0859 9.02639C10.5357 8.10073 11.1901 7.28948 11.9996 6.65404ZM11.1296 6.07204C10.2726 6.80361 9.58462 7.71256 9.11327 8.73606C8.64191 9.75957 8.39843 10.8732 8.39964 12C8.39847 13.1264 8.64179 14.2395 9.11278 15.2627C9.58377 16.2858 10.2712 17.1945 11.1276 17.926C10.093 18.5068 8.92441 18.8067 7.73798 18.7959C6.55154 18.7851 5.38859 18.4639 4.36474 17.8644C3.34089 17.2648 2.49178 16.4077 1.90184 15.3783C1.3119 14.3489 1.00165 13.183 1.00195 11.9965C1.00225 10.81 1.31309 9.64424 1.90355 8.61511C2.49402 7.58599 3.34355 6.72932 4.36771 6.13027C5.39186 5.53123 6.55497 5.21066 7.74142 5.20045C8.92786 5.19023 10.0963 5.49072 11.1306 6.07204H11.1296ZM12.8716 17.926C13.7281 17.1945 14.4155 16.2858 14.8865 15.2627C15.3575 14.2395 15.6008 13.1264 15.5996 12C15.6008 10.8732 15.3574 9.75957 14.886 8.73606C14.4147 7.71256 13.7267 6.80361 12.8696 6.07204C13.904 5.49072 15.0724 5.19023 16.2589 5.20045C17.4453 5.21066 18.6084 5.53123 19.6326 6.13027C20.6567 6.72932 21.5063 7.58599 22.0967 8.61511C22.6872 9.64424 22.998 10.81 22.9983 11.9965C22.9986 13.183 22.6884 14.3489 22.0984 15.3783C21.5085 16.4077 20.6594 17.2648 19.6355 17.8644C18.6117 18.4639 17.4487 18.7851 16.2623 18.7959C15.0759 18.8067 13.9073 18.5068 12.8726 17.926H12.8716Z"
        />
    </symbol>


    <symbol id="icon-minus-square" viewBox="0 0 24 24" >
        <path
                fill-rule="evenodd"
                clip-rule="evenodd"
                d="M5 4C4.44772 4 4 4.44772 4 5V19C4 19.5523 4.44772 20 5 20H19C19.5523 20 20 19.5523 20 19V5C20 4.44772 19.5523 4 19 4H5ZM2 5C2 3.34315 3.34315 2 5 2H19C20.6569 2 22 3.34315 22 5V19C22 20.6569 20.6569 22 19 22H5C3.34315 22 2 20.6569 2 19V5Z"
        />
        <path
                fill-rule="evenodd"
                clip-rule="evenodd"
                d="M7 12C7 11.4477 7.44772 11 8 11H16C16.5523 11 17 11.4477 17 12C17 12.5523 16.5523 13 16 13H8C7.44772 13 7 12.5523 7 12Z"
        />
    </symbol>


    <symbol id="icon-ok" viewBox="0 0 24 24" >
        <path
                fill-rule="evenodd"
                clip-rule="evenodd"
                d="M0 11.52C0 6.0893 0 3.37116 1.6867 1.6867C3.37339 0.00223091 6.0893 0 11.52 0H12.48C17.9107 0 20.6288 0 22.3133 1.6867C23.9978 3.37339 24 6.0893 24 11.52V12.48V12.48C24 17.9107 24 20.6288 22.3133 22.3133C20.6266 23.9978 17.9107 24 12.48 24H11.52H11.52C6.0893 24 3.37116 24 1.6867 22.3133C0.00223091 20.6266 0 17.9107 0 12.48V11.52ZM11.9943 12.3997C12.7182 12.3997 13.4259 12.185 14.0278 11.7828C14.6297 11.3806 15.0989 10.8089 15.3759 10.1401C15.653 9.47128 15.7254 8.73532 15.5842 8.0253C15.443 7.31527 15.0944 6.66307 14.5825 6.15117C14.0706 5.63927 13.4184 5.29067 12.7083 5.14944C11.9983 5.0082 11.2624 5.08068 10.5935 5.35772C9.92471 5.63476 9.35305 6.10391 8.95085 6.70584C8.54866 7.30777 8.33398 8.01544 8.33398 8.73938C8.33546 9.70969 8.72157 10.6398 9.40769 11.326C10.0938 12.0121 11.024 12.3982 11.9943 12.3997ZM11.9943 7.22013C12.2948 7.2199 12.5886 7.30882 12.8386 7.47562C13.0886 7.64242 13.2835 7.87963 13.3987 8.15722C13.5138 8.4348 13.5441 8.74031 13.4856 9.03509C13.4271 9.32987 13.2825 9.60068 13.0701 9.81326C12.8576 10.0258 12.5869 10.1707 12.2922 10.2294C11.9974 10.2881 11.6919 10.2581 11.4142 10.1431C11.1366 10.0281 10.8992 9.83342 10.7322 9.58355C10.5653 9.33369 10.4761 9.03991 10.4761 8.73938C10.4761 8.33664 10.636 7.95038 10.9207 7.6655C11.2054 7.38062 11.5915 7.22042 11.9943 7.22013ZM15.6103 14.496C14.9552 14.9093 14.2346 15.2082 13.4794 15.3801L15.5422 17.4318C15.7436 17.6333 15.8566 17.9065 15.8565 18.1913C15.8564 18.4761 15.7432 18.7492 15.5417 18.9506C15.3402 19.1519 15.067 19.2649 14.7822 19.2648C14.4974 19.2647 14.2243 19.1515 14.023 18.95L12.0059 16.9329L9.98876 18.95C9.89023 19.0514 9.77217 19.1318 9.6417 19.1863C9.51124 19.2408 9.37108 19.2682 9.22969 19.267C8.94537 19.2626 8.67362 19.1491 8.47063 18.95C8.37086 18.8504 8.29171 18.732 8.2377 18.6018C8.1837 18.4715 8.1559 18.3319 8.1559 18.1909C8.1559 18.0499 8.1837 17.9103 8.2377 17.7801C8.29171 17.6498 8.37086 17.5315 8.47063 17.4318L10.5212 15.3801C9.76531 15.2103 9.04439 14.9112 8.39025 14.496C8.15596 14.3407 7.99166 14.1 7.93241 13.8252C7.87316 13.5504 7.92366 13.2634 8.07314 13.0253C8.22261 12.7873 8.45921 12.6171 8.73244 12.5511C9.00567 12.4851 9.29388 12.5285 9.53555 12.672C10.2751 13.1327 11.129 13.3769 12.0003 13.3769C12.8716 13.3769 13.7255 13.1327 14.465 12.672C14.5848 12.5926 14.7193 12.538 14.8605 12.5114C15.0017 12.4847 15.1468 12.4866 15.2873 12.5169C15.4277 12.5472 15.5607 12.6053 15.6784 12.6877C15.7961 12.7702 15.8961 12.8754 15.9725 12.9971C16.0489 13.1188 16.1002 13.2545 16.1233 13.3963C16.1465 13.5382 16.141 13.6832 16.1073 13.8229C16.0735 13.9625 16.0122 14.0941 15.9268 14.2097C15.8415 14.3253 15.7339 14.4226 15.6103 14.496Z"
        />
    </symbol>


    <symbol id="icon-paper" viewBox="0 0 24 24" >
        <path
                d="M3 15V3C3 2.73478 3.10536 2.48043 3.29289 2.29289C3.48043 2.10536 3.73478 2 4 2H20C20.2652 2 20.5196 2.10536 20.7071 2.29289C20.8946 2.48043 21 2.73478 21 3V19C21 19.7956 20.6839 20.5587 20.1213 21.1213C19.5587 21.6839 18.7956 22 18 22H4C3.20435 22 2.44129 21.6839 1.87868 21.1213C1.31607 20.5587 1 19.7956 1 19V17H17V19C17 19.2652 17.1054 19.5196 17.2929 19.7071C17.4804 19.8946 17.7348 20 18 20C18.2652 20 18.5196 19.8946 18.7071 19.7071C18.8946 19.5196 19 19.2652 19 19V15H3Z"
        />
    </symbol>


    <symbol id="icon-paypal" viewBox="0 0 24 24" >
        <path
                d="M20.0671 8.478C20.5591 9.358 20.6231 10.492 20.3671 11.805C19.6271 15.611 17.0911 16.925 13.8531 16.925H13.3531C13.1615 16.9253 12.9763 16.9939 12.8307 17.1186C12.6852 17.2432 12.5889 17.4157 12.5591 17.605L12.5191 17.825L11.8891 21.818L11.8571 21.988C11.8273 22.1772 11.731 22.3496 11.5854 22.474C11.4399 22.5985 11.2546 22.6669 11.0631 22.667H7.72011C7.65035 22.667 7.58143 22.6518 7.51807 22.6226C7.45472 22.5934 7.39844 22.5509 7.35312 22.4978C7.30779 22.4448 7.27448 22.3826 7.25549 22.3155C7.2365 22.2484 7.23228 22.1779 7.24311 22.109L7.41811 21H8.93611L9.88611 14.98H11.2711C15.9491 14.98 19.0211 12.777 20.0671 8.478ZM17.1071 3.388C17.8691 4.256 18.0901 5.198 17.8591 6.673C17.8401 6.796 17.8191 6.913 17.7971 7.033C17.0621 10.806 14.7081 12.479 10.8411 12.479H8.95711C8.32711 12.479 7.78311 12.893 7.60311 13.481L7.58911 13.479L6.65911 19.373H3.12111C3.11367 19.373 3.10632 19.3713 3.09959 19.3681C3.09286 19.365 3.0869 19.3604 3.08213 19.3547C3.07737 19.3489 3.07391 19.3422 3.07201 19.335C3.07011 19.3279 3.0698 19.3203 3.07111 19.313L5.66911 2.803C5.70414 2.57934 5.81789 2.37555 5.98986 2.22833C6.16184 2.0811 6.38073 2.00013 6.60711 2H12.5831C14.7661 2 16.2991 2.469 17.1061 3.388H17.1071Z"
        />
    </symbol>


    <symbol id="icon-plus-square" viewBox="0 0 24 24" >
        <path
                fill-rule="evenodd"
                clip-rule="evenodd"
                d="M5 4C4.44772 4 4 4.44772 4 5V19C4 19.5523 4.44772 20 5 20H19C19.5523 20 20 19.5523 20 19V5C20 4.44772 19.5523 4 19 4H5ZM2 5C2 3.34315 3.34315 2 5 2H19C20.6569 2 22 3.34315 22 5V19C22 20.6569 20.6569 22 19 22H5C3.34315 22 2 20.6569 2 19V5Z"
        />
        <path
                fill-rule="evenodd"
                clip-rule="evenodd"
                d="M12 7C12.5523 7 13 7.44772 13 8V16C13 16.5523 12.5523 17 12 17C11.4477 17 11 16.5523 11 16V8C11 7.44772 11.4477 7 12 7Z"
        />
        <path
                fill-rule="evenodd"
                clip-rule="evenodd"
                d="M7 12C7 11.4477 7.44772 11 8 11H16C16.5523 11 17 11.4477 17 12C17 12.5523 16.5523 13 16 13H8C7.44772 13 7 12.5523 7 12Z"
        />
    </symbol>


    <symbol id="icon-question" viewBox="0 0 24 24">
        <path
                d="M12 22C6.477 22 2 17.523 2 12C2 6.477 6.477 2 12 2C17.523 2 22 6.477 22 12C22 17.523 17.523 22 12 22ZM12 20C14.1217 20 16.1566 19.1571 17.6569 17.6569C19.1571 16.1566 20 14.1217 20 12C20 9.87827 19.1571 7.84344 17.6569 6.34315C16.1566 4.84285 14.1217 4 12 4C9.87827 4 7.84344 4.84285 6.34315 6.34315C4.84285 7.84344 4 9.87827 4 12C4 14.1217 4.84285 16.1566 6.34315 17.6569C7.84344 19.1571 9.87827 20 12 20ZM11 15H13V17H11V15ZM13 13.355V14H11V12.5C11 12.2348 11.1054 11.9804 11.2929 11.7929C11.4804 11.6054 11.7348 11.5 12 11.5C12.2841 11.5 12.5623 11.4193 12.8023 11.2673C13.0423 11.1154 13.2343 10.8984 13.3558 10.6416C13.4773 10.3848 13.5234 10.0988 13.4887 9.81684C13.454 9.53489 13.34 9.26858 13.1598 9.04891C12.9797 8.82924 12.7409 8.66523 12.4712 8.57597C12.2015 8.48671 11.912 8.47587 11.6364 8.54471C11.3608 8.61354 11.1104 8.75923 10.9144 8.96482C10.7183 9.1704 10.5847 9.42743 10.529 9.706L8.567 9.313C8.68863 8.70508 8.96951 8.14037 9.38092 7.67659C9.79233 7.2128 10.3195 6.86658 10.9086 6.67332C11.4977 6.48006 12.1275 6.44669 12.7337 6.57661C13.3399 6.70654 13.9007 6.99511 14.3588 7.41282C14.8169 7.83054 15.1559 8.36241 15.3411 8.95406C15.5263 9.54572 15.5511 10.1759 15.4129 10.7803C15.2747 11.3847 14.9785 11.9415 14.5545 12.3939C14.1306 12.8462 13.5941 13.1779 13 13.355Z"
        />
    </symbol>


    <symbol id="icon-repeat" viewBox="0 0 24 24" >
        <path
                d="M5.463 4.43301C7.27756 2.86067 9.59899 1.99666 12 2.00001C17.523 2.00001 22 6.47701 22 12C22 14.136 21.33 16.116 20.19 17.74L17 12H20C20.0001 10.4316 19.5392 8.89781 18.6747 7.58927C17.8101 6.28072 16.5799 5.25517 15.1372 4.64013C13.6944 4.0251 12.1027 3.84771 10.56 4.13003C9.0172 4.41234 7.59145 5.14191 6.46 6.22801L5.463 4.43301ZM18.537 19.567C16.7224 21.1393 14.401 22.0034 12 22C6.477 22 2 17.523 2 12C2 9.86401 2.67 7.88401 3.81 6.26001L7 12H4C3.99987 13.5684 4.46075 15.1022 5.32534 16.4108C6.18992 17.7193 7.42007 18.7449 8.86282 19.3599C10.3056 19.9749 11.8973 20.1523 13.44 19.87C14.9828 19.5877 16.4085 18.8581 17.54 17.772L18.537 19.567Z"
        />
    </symbol>


    <symbol id="icon-reg" viewBox="0 0 24 24" >
        <path
                d="M13 14.062V22H4C3.99989 20.8649 4.24133 19.7428 4.70827 18.7083C5.1752 17.6737 5.85695 16.7503 6.70822 15.9995C7.55948 15.2487 8.56078 14.6876 9.64557 14.3536C10.7304 14.0195 11.8738 13.9201 13 14.062ZM12 13C8.685 13 6 10.315 6 7C6 3.685 8.685 1 12 1C15.315 1 18 3.685 18 7C18 10.315 15.315 13 12 13ZM17.793 19.914L21.328 16.379L22.743 17.793L17.793 22.743L14.257 19.207L15.672 17.793L17.792 19.914H17.793Z"
        />
    </symbol>


    <symbol id="icon-rutube" viewBox="0 0 24 24" >
        <path
                fill-rule="evenodd"
                clip-rule="evenodd"
                d="M1.6867 1.6867C0 3.37116 0 6.0893 0 11.52V12.48C0 17.9107 0.00223091 20.6266 1.6867 22.3133C3.37116 24 6.0893 24 11.52 24H11.52H12.48C17.9107 24 20.6266 23.9978 22.3133 22.3133C24 20.6288 24 17.9107 24 12.48V12.48V11.52C24 6.0893 23.9978 3.37339 22.3133 1.6867C20.6288 0 17.9107 0 12.48 0H11.52C6.0893 0 3.37339 0.00223091 1.6867 1.6867ZM16.8298 10.2552C16.8298 11.4707 16.2743 12.4391 15.4088 13.1469L18 18H14.673L12.7683 13.9347H9.84634V18L7.00361 17.9773L7 6L13.0186 6.02369C15.1231 6.02369 16.8298 7.59198 16.8298 9.72648V10.2552ZM12.4067 11.4423C13.2451 11.4423 13.925 10.9599 13.925 10.11V10.0133C13.925 9.16311 13.2451 8.56603 12.4067 8.56603H9.84647V11.4423H12.4067Z"
        />
    </symbol>


    <symbol id="icon-share-forward" viewBox="0 0 24 24" >
        <path
                d="M0 11.52C0 6.0893 -1.59685e-06 3.37116 1.6867 1.6867C3.37339 0.0022325 6.0893 0 11.52 0H12.48C17.9107 0 20.6288 0 22.3133 1.6867C23.9978 3.3734 24 6.0893 24 11.52V12.48C24 17.9107 24 20.6288 22.3133 22.3133C20.6266 23.9978 17.9107 24 12.48 24H11.52C6.0893 24 3.37116 24 1.6867 22.3133C0.00223091 20.6266 0 17.9107 0 12.48V11.52Z"
                fill="var(--icon-bg)"
        />
        <g clip-path="url(#clip0_822_2049)">
            <path
                    d="M12.7318 13.4666H11.2651C10.0621 13.4661 8.88194 13.7945 7.85208 14.4162C6.82222 15.0379 5.98188 15.9292 5.42191 16.9939C5.40617 16.7963 5.39834 16.5981 5.39844 16.3999C5.39844 12.3497 8.68157 9.06657 12.7318 9.06657V5.3999L20.0651 11.2666L12.7318 17.1332V13.4666Z"
                    fill="var(--icon-fill)"
            />
        </g>
        <defs>
            <clipPath>
                <rect width="17.6" height="17.6" transform="translate(3.19922 3.19995)"/>
            </clipPath>
        </defs>
    </symbol>


    <symbol id="icon-show" viewBox="0 0 24 24" >
        <path
                fill-rule="evenodd"
                clip-rule="evenodd"
                d="M1.6867 1.6867C0 3.37116 0 6.0893 0 11.52V12.48C0 17.9107 0.00223091 20.6266 1.6867 22.3133C3.37116 24 6.0893 24 11.52 24H12.48C17.9107 24 20.6266 23.9978 22.3133 22.3133C24 20.6288 24 17.9107 24 12.48V12.48V11.52C24 6.0893 23.9978 3.3734 22.3133 1.6867C20.6288 0 17.9107 0 12.48 0H11.52C6.0893 0 3.37339 0.0022325 1.6867 1.6867ZM11.9999 5.4002C8.04582 5.4002 4.75535 8.24553 4.06602 12.0002C4.75608 15.7549 8.04582 18.6002 11.9999 18.6002C15.9541 18.6002 19.2445 15.7549 19.9339 12.0002C19.2438 8.24553 15.9541 5.4002 11.9999 5.4002ZM14.5927 14.5929C13.905 15.2806 12.9724 15.6669 11.9999 15.6669C11.0275 15.6669 10.0949 15.2806 9.40722 14.5929C8.71959 13.9053 8.33328 12.9727 8.33328 12.0002C8.33328 11.0277 8.71959 10.0951 9.40722 9.40747C10.0949 8.71984 11.0275 8.33353 11.9999 8.33353C12.9724 8.33353 13.905 8.71984 14.5927 9.40747C15.2803 10.0951 15.6666 11.0277 15.6666 12.0002C15.6666 12.9727 15.2803 13.9053 14.5927 14.5929ZM10.4443 13.5558C10.8569 13.9684 11.4165 14.2002 11.9999 14.2002C12.5834 14.2002 13.143 13.9684 13.5556 13.5558C13.9682 13.1432 14.1999 12.5837 14.1999 12.0002C14.1999 11.4167 13.9682 10.8571 13.5556 10.4446C13.143 10.032 12.5834 9.80019 11.9999 9.80019C11.4165 9.80019 10.8569 10.032 10.4443 10.4446C10.0317 10.8571 9.79995 11.4167 9.79995 12.0002C9.79995 12.5837 10.0317 13.1432 10.4443 13.5558Z"
        />
    </symbol>


    <symbol id="icon-star" viewBox="0 0 24 24" >
        <path
                d="M0 11.52C0 6.0893 -1.59685e-06 3.37116 1.6867 1.6867C3.37339 0.0022325 6.0893 0 11.52 0H12.48C17.9107 0 20.6288 0 22.3133 1.6867C23.9978 3.3734 24 6.0893 24 11.52V12.48C24 17.9107 24 20.6288 22.3133 22.3133C20.6266 23.9978 17.9107 24 12.48 24H11.52C6.0893 24 3.37116 24 1.6867 22.3133C0.00223091 20.6266 0 17.9107 0 12.48V11.52Z"
                fill="var(--icon-bg)"
        />
        <g clip-path="url(#clip0_822_2070)">
            <path
                    d="M11.9984 16.5906L6.82624 19.4858L7.98124 13.672L3.62891 9.64745L9.51537 8.94932L11.9984 3.56665L14.4815 8.94932L20.368 9.64745L16.0156 13.672L17.1706 19.4858L11.9984 16.5906Z"
                    fill="var(--icon-fill)"
            />
        </g>
        <defs>
            <clipPath>
                <rect width="17.6" height="17.6" transform="translate(3.19922 3.19995)"/>
            </clipPath>
        </defs>
    </symbol>


    <symbol id="icon-telega" viewBox="0 0 25 25" >
        <path
                fill-rule="evenodd"
                clip-rule="evenodd"
                d="M4.12428 11.3884C9.49282 9.13055 13.0729 7.64191 14.8645 6.92245C19.9801 4.86809 21.0419 4.51088 21.7352 4.50033C21.9897 4.4945 22.2396 4.5668 22.4488 4.70682C22.5952 4.83002 22.6887 5.00144 22.7112 5.18763C22.7485 5.41941 22.7589 5.65447 22.7424 5.88849C22.4645 8.69948 21.2652 15.5212 20.6546 18.6683C20.397 20.0007 19.8895 20.4484 19.396 20.4921C18.3264 20.587 17.5144 19.8093 16.4791 19.1537C14.8582 18.1287 13.9416 17.4957 12.3692 16.4889C10.55 15.3328 11.7289 14.6968 12.7658 13.6583C13.0375 13.3855 17.7486 9.24811 17.8408 8.87281C17.8526 8.81771 17.851 8.7607 17.8361 8.7063C17.8212 8.65189 17.7934 8.60157 17.7549 8.55931C17.6989 8.52446 17.6352 8.50299 17.5689 8.4967C17.5026 8.49041 17.4358 8.49947 17.3739 8.52313C17.2115 8.55931 14.6219 10.2112 9.60526 13.4789C8.86925 13.9673 8.20352 14.2049 7.60805 14.1918C6.94909 14.1783 5.68425 13.8331 4.74421 13.5377C3.5918 13.176 2.67519 12.9845 2.75482 12.3696C2.79542 12.0481 3.2519 11.721 4.12428 11.3884Z"
        />
    </symbol>


    <symbol id="icon-telegram" viewBox="0 0 20 20">
        <path
                fill-rule="evenodd"
                clip-rule="evenodd"
                d="M1.40558 1.40558C0 2.8093 0 5.07442 0 9.6V10.4C0 14.9256 0.00185909 17.1888 1.40558 18.5944C2.8093 20 5.07442 20 9.6 20H10.4C14.9256 20 17.1888 19.9981 18.5944 18.5944C20 17.1907 20 14.9256 20 10.4V10.4V9.6C20 5.07442 19.9981 2.81116 18.5944 1.40558C17.1907 0 14.9256 0 10.4 0H9.6C5.07442 0 2.81116 0.00186042 1.40558 1.40558ZM10.5176 7.01095C9.45032 7.45499 7.3176 8.37374 4.11947 9.76723C3.59978 9.9725 3.32784 10.1744 3.30366 10.3728C3.26189 10.7069 3.68004 10.8385 4.24906 11.0175C4.32644 11.0418 4.4066 11.067 4.48877 11.0937C5.04877 11.2761 5.80226 11.4891 6.19481 11.4975C6.54954 11.5055 6.94614 11.3589 7.38458 11.0575C10.3731 9.04072 11.9157 8.02119 12.0125 7.99886C12.0494 7.98426 12.0892 7.97866 12.1287 7.98255C12.1682 7.98643 12.2061 7.99968 12.2395 8.02119C12.2624 8.04727 12.279 8.07833 12.2878 8.11191C12.2967 8.14548 12.2977 8.18067 12.2906 8.21467C12.2489 8.39092 10.614 9.91144 9.7633 10.7027C9.49597 10.9513 9.30608 11.1279 9.26737 11.1682C9.18144 11.2573 9.09387 11.3417 9.0097 11.4228C8.48885 11.9245 8.09815 12.3009 9.0311 12.9151C9.44901 13.1924 9.78917 13.4237 10.1235 13.651C10.5386 13.9333 10.9447 14.2094 11.4795 14.5598C11.6078 14.644 11.7303 14.7314 11.8497 14.8166C12.3041 15.1409 12.7125 15.4323 13.2171 15.3858C13.5111 15.3589 13.8134 15.0826 13.9669 14.2603C14.3306 12.3179 15.045 8.1077 15.2106 6.37282C15.2205 6.22839 15.2142 6.08331 15.192 5.94026C15.1786 5.82535 15.1229 5.71955 15.0357 5.64351C14.9111 5.5571 14.7623 5.51247 14.6106 5.51607C14.1976 5.52258 13.565 5.74305 10.5176 7.01095Z"
        />
    </symbol>


    <symbol id="icon-tiktok" viewBox="0 0 30 30" >
        <path
                fill-rule="evenodd"
                clip-rule="evenodd"
                d="M0 14.4V14.4V15.6C0 22.3884 0.00278863 25.7833 2.10837 27.8916C4.21395 30 7.61162 30 14.4 30H14.4H15.6C22.3884 30 25.7833 29.9972 27.8916 27.8916C30 25.7861 30 22.3884 30 15.6V15.6V14.4C30 7.61163 29.9972 4.21674 27.8916 2.10837C25.7861 0 22.3884 0 15.6 0H15.6H14.4C7.61163 0 4.21674 0.00278863 2.10837 2.10837C0 4.21395 0 7.61162 0 14.4ZM19.1502 8.62614C19.4661 9.09755 19.8749 9.49963 20.3514 9.80782C21.0288 10.2563 21.8232 10.4956 22.6356 10.4957V13.4818C21.1341 13.4837 19.6699 13.0142 18.4495 12.1394V18.279C18.4466 19.7488 17.8606 21.1574 16.8202 22.1957C15.7799 23.234 14.3701 23.8171 12.9002 23.8171C11.7692 23.8395 10.6589 23.5115 9.72163 22.878C9.69765 22.861 9.67474 22.8453 9.65219 22.8298C9.59339 22.7894 9.53703 22.7507 9.47046 22.6953C7.61744 21.2887 6.91 18.8371 7.60767 16.6046C7.96161 15.4784 8.66614 14.4948 9.61848 13.7972C10.5708 13.0996 11.7211 12.7246 12.9016 12.7269C13.1493 12.7292 13.3965 12.7497 13.6412 12.7883V15.872C13.3994 15.7968 13.1479 15.7573 12.8947 15.7548C12.3303 15.7583 11.7833 15.9503 11.3405 16.3001C10.8977 16.65 10.5844 17.1377 10.4504 17.6859C10.3164 18.2341 10.3694 18.8114 10.6008 19.3261C10.8323 19.8408 11.2291 20.2634 11.7281 20.5269C12.0937 20.7116 12.4977 20.8072 12.9072 20.806C13.5619 20.8046 14.1907 20.5499 14.6618 20.0952C15.1329 19.6405 15.4097 19.0211 15.4342 18.3669V6.30688H18.4509C18.448 6.56132 18.469 6.81546 18.5137 7.06596C18.6177 7.62386 18.8342 8.15472 19.1502 8.62614Z"
        />
    </symbol>


    <symbol id="icon-twitter" viewBox="0 0 24 24" >
        <path
                fill-rule="evenodd"
                clip-rule="evenodd"
                d="M1.6867 1.6867C0 3.37116 0 6.0893 0 11.52V12.48C0 17.9107 0.00223091 20.6266 1.6867 22.3133C3.37116 24 6.0893 24 11.52 24H11.52H12.48C17.9107 24 20.6266 23.9978 22.3133 22.3133C24 20.6288 24 17.9107 24 12.48V12.48V11.52C24 6.0893 23.9978 3.37339 22.3133 1.6867C20.6288 0 17.9107 0 12.48 0H11.52C6.0893 0 3.37339 0.00223091 1.6867 1.6867ZM17.5468 9.91256C17.5468 13.5527 14.7762 17.7488 9.71163 17.7488C8.21335 17.7529 6.74565 17.3251 5.48428 16.5165C5.70175 16.5423 5.92054 16.5553 6.13953 16.5555C7.38142 16.5592 8.58817 16.1434 9.56428 15.3756C8.9906 15.3635 8.43497 15.1729 7.97477 14.8301C7.51458 14.4874 7.17273 14.0096 6.99684 13.4634C7.4095 13.5429 7.83487 13.5269 8.24037 13.4166C7.61708 13.2906 7.05657 12.9528 6.65392 12.4607C6.25127 11.9685 6.03128 11.3522 6.03126 10.7163V10.6772C6.41442 10.8905 6.84315 11.0088 7.28149 11.0221C6.6984 10.6326 6.28565 10.0355 6.12722 9.35244C5.96878 8.66935 6.07657 7.95155 6.42865 7.34512C7.11994 8.19619 7.9826 8.89226 8.96054 9.38806C9.93849 9.88386 11.0098 10.1683 12.1049 10.2229C11.9693 9.63341 12.0314 9.0157 12.2816 8.465C12.5318 7.91431 12.9562 7.46121 13.4894 7.17557C14.0226 6.88994 14.6349 6.78765 15.232 6.88445C15.829 6.98126 16.3777 7.27179 16.7933 7.71126C17.41 7.58947 18.0012 7.36294 18.5414 7.04149C18.3359 7.67918 17.9059 8.2206 17.3314 8.56521C17.8772 8.5004 18.4104 8.35442 18.9131 8.13209C18.5431 8.68487 18.0778 9.16753 17.539 9.55758C17.5468 9.67479 17.5468 9.79423 17.5468 9.91256Z"
        />
    </symbol>


    <symbol id="icon-user-add" viewBox="0 0 24 24" >
        <path
                d="M0 11.52C0 6.0893 -1.59685e-06 3.37116 1.6867 1.6867C3.37339 0.0022325 6.0893 0 11.52 0H12.48C17.9107 0 20.6288 0 22.3133 1.6867C23.9978 3.3734 24 6.0893 24 11.52V12.48C24 17.9107 24 20.6288 22.3133 22.3133C20.6266 23.9978 17.9107 24 12.48 24H11.52C6.0893 24 3.37116 24 1.6867 22.3133C0.00223091 20.6266 0 17.9107 0 12.48V11.52Z"
                fill="var(--icon-bg)"
        />
        <g clip-path="url(#clip0_822_17692)">
            <path
                    d="M13.4661 13.6515V19.3333H6.13281C6.13259 18.4379 6.33735 17.5542 6.73143 16.7501C7.12551 15.946 7.69843 15.2428 8.4063 14.6943C9.11418 14.1458 9.93821 13.7667 10.8153 13.586C11.6923 13.4052 12.5991 13.4276 13.4661 13.6515ZM11.9995 12.7333C9.56848 12.7333 7.59948 10.7643 7.59948 8.33335C7.59948 5.90235 9.56848 3.93335 11.9995 3.93335C14.4305 3.93335 16.3995 5.90235 16.3995 8.33335C16.3995 10.7643 14.4305 12.7333 11.9995 12.7333ZM16.3995 15.6667V13.4667H17.8661V15.6667H20.0661V17.1333H17.8661V19.3333H16.3995V17.1333H14.1995V15.6667H16.3995Z"
                    fill="var(--icon-fill)"
            />
        </g>
        <defs>
            <clipPath>
                <rect width="17.6" height="17.6" transform="translate(3.19922 3.19995)"/>
            </clipPath>
        </defs>
    </symbol>


    <symbol id="icon-user-circle" viewBox="0 0 24 24" >
        <path
                d="M12 2C6.579 2 2 6.579 2 12C2 17.421 6.579 22 12 22C17.421 22 22 17.421 22 12C22 6.579 17.421 2 12 2ZM12 7C13.727 7 15 8.272 15 10C15 11.728 13.727 13 12 13C10.274 13 9 11.728 9 10C9 8.272 10.274 7 12 7ZM6.894 16.772C7.791 15.452 9.287 14.572 11 14.572H13C14.714 14.572 16.209 15.452 17.106 16.772C15.828 18.14 14.015 19 12 19C9.985 19 8.172 18.14 6.894 16.772Z"
        />
    </symbol>


    <symbol id="icon-user-follow" viewBox="0 0 20 20" >
        <path
                d="M11.6673 11.8763V13.618C10.9131 13.3513 10.1059 13.2696 9.31349 13.3795C8.52109 13.4894 7.76665 13.7879 7.11351 14.2498C6.46037 14.7118 5.9276 15.3237 5.55995 16.0342C5.1923 16.7447 5.0005 17.533 5.00065 18.333L3.33398 18.3322C3.33373 17.3146 3.56642 16.3104 4.01423 15.3967C4.46205 14.4829 5.1131 13.6838 5.9175 13.0605C6.7219 12.4373 7.6583 12.0065 8.65495 11.801C9.65159 11.5956 10.682 11.6211 11.6673 11.8755V11.8763ZM10.0007 10.833C7.23815 10.833 5.00065 8.59551 5.00065 5.83301C5.00065 3.07051 7.23815 0.833008 10.0007 0.833008C12.7632 0.833008 15.0007 3.07051 15.0007 5.83301C15.0007 8.59551 12.7632 10.833 10.0007 10.833ZM10.0007 9.16634C11.8423 9.16634 13.334 7.67467 13.334 5.83301C13.334 3.99134 11.8423 2.49967 10.0007 2.49967C8.15898 2.49967 6.66732 3.99134 6.66732 5.83301C6.66732 7.67467 8.15898 9.16634 10.0007 9.16634ZM14.8282 16.5947L17.774 13.6488L18.9532 14.8272L14.8282 18.9522L11.8815 16.0055L13.0607 14.8272L14.8273 16.5947H14.8282Z"
        />
    </symbol>


    <symbol id="icon-visa" viewBox="0 0 24 24" >
        <path
                d="M22.222 15.7681L21.997 14.6431H19.483L19.083 15.7601L17.068 15.7641C18.0273 13.4573 18.9886 11.1513 19.952 8.84612C20.116 8.45512 20.407 8.25612 20.836 8.25812C21.164 8.26112 21.699 8.26112 22.442 8.25912L24 15.7651L22.222 15.7681ZM20.049 13.1021H21.669L21.064 10.2821L20.049 13.1021ZM7.06 8.25712L9.086 8.25912L5.954 15.7691L3.903 15.7671C3.38725 13.7834 2.87791 11.7981 2.375 9.81112C2.275 9.41512 2.077 9.13812 1.696 9.00712C1.357 8.89012 0.792 8.71012 0 8.46512V8.26012H3.237C3.797 8.26012 4.124 8.53112 4.229 9.08712C4.335 9.64412 4.601 11.0621 5.029 13.3411L7.06 8.25712ZM11.87 8.25912L10.268 15.7671L8.34 15.7651L9.94 8.25712L11.87 8.25912ZM15.78 8.12012C16.357 8.12012 17.084 8.30012 17.502 8.46512L17.164 10.0221C16.786 9.87012 16.164 9.66512 15.641 9.67212C14.881 9.68512 14.411 10.0041 14.411 10.3101C14.411 10.8081 15.227 11.0591 16.067 11.6031C17.026 12.2231 17.152 12.7801 17.14 13.3851C17.127 14.6411 16.067 15.8801 13.831 15.8801C12.811 15.8651 12.443 15.7791 11.611 15.4841L11.963 13.8591C12.81 14.2141 13.169 14.3271 13.893 14.3271C14.556 14.3271 15.125 14.0591 15.13 13.5921C15.134 13.2601 14.93 13.0951 14.186 12.6851C13.442 12.2741 12.398 11.7051 12.412 10.5631C12.429 9.10112 13.814 8.12012 15.781 8.12012H15.78Z"
        />
    </symbol>


    <symbol id="icon-vk" viewBox="0 0 24 24" >
        <path
                fill-rule="evenodd"
                clip-rule="evenodd"
                d="M1.6867 1.6867C0 3.37116 0 6.0893 0 11.52V12.48C0 17.9107 0.0022325 20.6266 1.6867 22.3133C3.37116 24 6.0893 24 11.52 24H12.48C17.9107 24 20.6266 23.9978 22.3133 22.3133C24 20.6288 24 17.9107 24 12.48V11.52C24 6.0893 23.9978 3.3734 22.3133 1.6867C20.6288 0 17.9107 0 12.48 0H11.52C6.0893 0 3.3734 0.0022325 1.6867 1.6867ZM4.34277 7.50684C4.46556 13.3461 7.38352 16.8557 12.5028 16.8557H12.7919V13.5068C14.6728 13.6966 16.095 15.0696 16.6654 16.8557H19.3277C18.5977 14.1978 16.6799 12.7254 15.4821 12.1673C16.6799 11.4752 18.3644 9.79074 18.7662 7.50684H16.3517C15.8282 9.35986 14.2743 11.0443 12.7964 11.204V7.50684H10.3818V13.9813C8.88491 13.6084 6.99394 11.7933 6.91022 7.50684H4.34277Z"
        />
    </symbol>


    <symbol id="icon-wallet" viewBox="0 0 33 33" >
        <path
                d="M30.25 8.25H20.625C18.437 8.25 16.3385 9.11919 14.7914 10.6664C13.2442 12.2135 12.375 14.312 12.375 16.5C12.375 18.688 13.2442 20.7865 14.7914 22.3336C16.3385 23.8808 18.437 24.75 20.625 24.75H30.25V27.5C30.25 27.8647 30.1051 28.2144 29.8473 28.4723C29.5894 28.7301 29.2397 28.875 28.875 28.875H4.125C3.76033 28.875 3.41059 28.7301 3.15273 28.4723C2.89487 28.2144 2.75 27.8647 2.75 27.5V5.5C2.75 5.13533 2.89487 4.78559 3.15273 4.52773C3.41059 4.26987 3.76033 4.125 4.125 4.125H28.875C29.2397 4.125 29.5894 4.26987 29.8473 4.52773C30.1051 4.78559 30.25 5.13533 30.25 5.5V8.25ZM20.625 11H31.625V22H20.625C19.1663 22 17.7674 21.4205 16.7359 20.3891C15.7045 19.3576 15.125 17.9587 15.125 16.5C15.125 15.0413 15.7045 13.6424 16.7359 12.6109C17.7674 11.5795 19.1663 11 20.625 11V11ZM20.625 15.125V17.875H24.75V15.125H20.625Z"
        />
    </symbol>


    <symbol id="icon-youtube" viewBox="0 0 24 24" >
        <path
                fill-rule="evenodd"
                clip-rule="evenodd"
                d="M1.6867 1.6867C0 3.37116 0 6.0893 0 11.52V12.48C0 17.9107 0.00223091 20.6266 1.6867 22.3133C3.37116 24 6.08929 24 11.52 24H11.52H12.48C17.9107 24 20.6266 23.9978 22.3133 22.3133C24 20.6288 24 17.9107 24 12.48V12.48V11.52C24 6.0893 23.9978 3.37339 22.3133 1.6867C20.6288 0 17.9107 0 12.48 0H11.52C6.0893 0 3.37339 0.00223091 1.6867 1.6867ZM18.0717 7.88336C18.2847 8.09579 18.438 8.36058 18.5162 8.65109C18.8019 9.71825 18.7975 11.9441 18.7975 11.9441C18.7975 11.9441 18.7975 14.17 18.5117 15.2371C18.4339 15.5271 18.2813 15.7915 18.0692 16.0039C17.857 16.2163 17.5927 16.3692 17.3028 16.4472C16.2356 16.7329 11.9569 16.7329 11.9569 16.7329C11.9569 16.7329 7.67821 16.7329 6.61105 16.4472C6.32105 16.3691 6.05664 16.2163 5.84428 16.0039C5.63192 15.7915 5.47906 15.5271 5.40101 15.2371C5.11524 14.17 5.11523 11.9441 5.11523 11.9441C5.11523 11.9441 5.11524 9.71825 5.40101 8.65109C5.47906 8.36108 5.63192 8.09667 5.84428 7.88431C6.05664 7.67195 6.32105 7.5191 6.61105 7.44104C7.67821 7.15527 11.9569 7.15527 11.9569 7.15527C11.9569 7.15527 16.2356 7.15527 17.3028 7.44104C17.5935 7.51838 17.8587 7.67094 18.0717 7.88336ZM14.1471 11.9441L10.5906 9.89127V13.9969L14.1471 11.9441Z"
        />
    </symbol>
</defs>

</svg>
